<svg width="1196" height="622" viewBox="0 0 1196 622" fill="none" xmlns="http://www.w3.org/2000/svg">
<path d="M446.706 44.6453C475.874 43.4454 507.899 52.0339 530.654 71.1765C543.975 82.3831 553.4 106.14 555.918 122.932C557.611 134.224 557.017 147.987 558.289 159.52C560.345 177.087 561.472 193.869 562.337 211.526C563.267 233.695 563.582 255.887 563.282 278.074C563.099 293.207 563.275 306.239 560.435 321.177C553.005 360.254 517.025 381.077 479.876 384.475C474.352 384.979 468.707 385.369 463.028 385.643C440.182 385.399 425.721 384.663 404.886 373.829C396.249 369.338 389.541 365.771 382.068 358.947C346.389 326.367 349.459 267.059 348.002 222.739C347.37 203.533 347.193 185.977 345.716 166.612C344.15 146.076 345.57 120.747 350.099 100.731C351.548 94.3266 360.582 79.0646 365.081 74.1312C383.527 53.9082 420.397 45.9299 446.706 44.6453ZM488.922 94.3173C494.407 95.4345 502.838 94.4627 504.366 95.2068C504.199 95.886 504.132 96.7714 503.384 96.9992C497.547 98.7729 488.732 97.1843 482.962 98.6035C475.221 98.5422 464.543 100.183 456.634 101.252C451.248 108.651 446.191 108.848 437.547 112C434.11 113.329 431.049 114.603 427.451 115.462C418.025 118.195 396.501 125.041 391.991 133.897C389.196 139.388 393.321 239.174 394.232 253.761C394.967 265.528 396.771 277.216 397.373 289.003C398.048 302.211 398.416 315.441 398.944 328.656C399.243 336.116 399.261 343.724 400.269 351.123C405.011 351.467 412.57 351.631 417.202 350.215C448.075 340.781 479.315 331.493 509.875 321.098C515.663 319.13 528.662 311.981 528.55 305.456C528.226 291.768 526.076 277.824 525.8 264.038C524.358 231.408 524.142 198.788 523.383 166.153C523.134 156.121 522.814 146.09 522.423 136.063C522.275 131.867 521.792 122.689 522.149 118.789C521.357 109.404 519.647 103.506 521.828 94.3027C517.553 93.8641 506.206 93.8103 503.684 91.6453C502.688 87.1225 510.567 85.7751 510.721 80.0446C509.176 77.3224 504.332 75.4774 501.547 77.306C499.044 78.9495 498.327 83.7532 495.569 84.7834C494.88 84.6731 494.009 84.6059 493.364 84.3881C491.912 83.8986 488.401 85.3862 487.045 86.0701C484.999 87.1027 480.886 91.341 479.03 92.133C475.325 93.714 472.996 93.3752 469.149 95.7149L469.112 96.4146C471.492 97.4407 475.417 97.9973 478.007 98.0294C483.322 97.509 484.464 97.509 488.922 94.3173ZM497.462 58.7225C495.375 59.3632 491.036 60.6061 489.368 61.8244C478.866 69.4992 469.771 77.4345 459.401 85.4785C452.936 90.4936 438.679 95.2249 434.354 101.645C433.476 102.949 432.322 106.235 430.953 107.898C428.695 110.642 425.426 110.234 423.79 112.348C424.599 112.733 424.676 112.834 425.568 113.018C429.734 112.507 432.648 111.218 436.436 109.627C438.233 107.396 438.068 107.525 437.054 104.608C439.244 102.023 446.347 101.239 449.38 99.3295C450.629 98.544 453.065 95.8585 454.127 94.7027C457.317 94.524 461.668 94.4907 464.48 93.2491C474.148 88.9798 490.405 75.6339 498.025 68.2388C497.885 65.3578 497.812 61.5084 497.462 58.7225Z" fill="#52211D"/>
<path d="M488.922 94.3174C494.407 95.4346 502.837 94.4628 504.366 95.2069C504.199 95.8861 504.131 96.7715 503.383 96.9993C497.547 98.773 488.732 97.1844 482.962 98.6036L478.007 98.0295C483.322 97.5091 484.464 97.5091 488.922 94.3174Z" fill="#09090B"/>
<path d="M521.828 94.3027L522.523 94.8669C522.948 99.8085 522.956 113.98 522.149 118.789C521.357 109.404 519.647 103.506 521.828 94.3027Z" fill="#754E4C"/>
<path d="M425.568 113.018C429.734 112.507 432.648 111.218 436.435 109.627L437.547 112C434.11 113.329 431.049 114.604 427.451 115.462C426.012 115.245 425.702 114.966 424.404 114.238L424.195 113.419L425.568 113.018Z" fill="#09090B"/>
<path d="M100.051 51.631C111.407 50.8453 130.305 51.3578 142.058 51.4044C157.668 51.417 173.276 51.6577 188.877 52.1264C219.091 53.0275 262.098 54.652 278.809 84.695C291.581 107.656 298.374 156.251 284.452 180.43C282.516 183.791 278.492 187.355 275.476 189.793C271.842 192.991 256.171 201.176 255.194 205.035C256.595 207.793 272.147 213.839 275.865 215.834C283.489 219.925 287.637 223.125 292.366 230.524C294.852 234.435 296.698 238.717 297.834 243.21C301.868 259.006 303.792 302.012 302.929 318.301C302.481 327.989 301.225 337.624 299.175 347.103C297.341 368.659 273.958 377.86 255.36 380.275C229.242 383.666 201.515 382.214 175.261 382.995C166.935 383.242 110.971 384.924 106.942 381.946C105.493 377.454 104.882 369.917 104.777 365.174C104.224 340.284 103.425 315.406 102.842 290.518L99.3643 124.941C98.8509 101.818 96.741 78.1889 97.1755 55.0331C97.2064 53.3763 98.8649 52.4784 100.051 51.631ZM186.045 335.117C211.957 335.922 228.978 332.288 229.522 301.733C229.7 291.759 227.795 234.555 223.64 229.588C222.524 229.536 221.541 229.476 220.425 229.525C205.301 237.387 191.212 242.531 175.603 251.076C176.332 277.864 177.077 306.618 176.139 333.306L186.045 335.117ZM203.429 185.478C210.916 181.537 215.077 179.296 221.944 174.247C226.5 164.521 224.797 154.419 224.882 144.106C225.18 108.004 222.57 93.0847 181.136 94.2499C179.115 94.3649 177.045 94.1932 175.657 95.5891C173.846 98.8165 172.582 101.507 172.188 105.241C171.462 112.132 172.66 190.621 173.956 195.162C174.105 195.684 174.294 196.666 174.763 196.927C176.74 198.027 179.565 197.218 181.573 196.561C189.13 194.09 196.365 189.15 203.429 185.478Z" fill="#52211D"/>
<path d="M684.284 49.8989C686.818 49.5982 689.58 49.6716 692.132 49.6992C716.882 49.9672 746.992 54.4281 764.99 72.8645C779.473 87.7061 782.533 112.51 782.224 132.435C782.177 135.286 781.78 138.826 779.543 140.859C778.48 141.823 777.166 142.125 775.782 142.251C768.453 142.915 760.517 141.969 753.13 141.895C745.625 141.819 737.987 142.513 730.512 142.041C727.802 141.871 724.567 141.35 722.587 139.309C715.568 132.069 720.596 105.527 712.151 96.2505C709.237 93.0506 705.009 92.0863 700.84 91.9351C693.172 91.6571 685.282 92.605 679.478 98.12C672.587 104.669 671.921 113.64 671.629 122.585C671.366 130.57 671.004 141.219 674.899 148.43C683.852 165.019 732.836 191.339 749.573 202.968C758.958 209.401 767.624 216.822 775.432 225.103C796.712 247.986 796 291.732 795.871 321.103C795.743 348.443 783.526 363.778 759.367 375.055C736.106 385.911 716.952 385.161 691.975 384.099C688.161 383.667 684.371 383.014 680.634 382.144C660.796 377.509 640.035 366.286 629.132 348.527C626.323 343.95 623.882 339.053 622.288 333.914C618.644 322.187 613.283 287.167 616.185 275.79C616.653 273.947 617.575 271.541 619.321 270.588C624.344 267.858 663.517 268.833 671.115 269.596C673.912 269.877 676.499 270.544 679.168 271.378C683.215 291.344 677.06 321.455 692.319 338.103C695.385 341.445 702.165 342.813 706.615 342.268C730.559 339.339 731.657 314.029 730.121 295.187C729.356 285.657 728.766 276.949 723.51 268.91C717.845 260.246 708.122 255.072 700.139 248.834C691.344 242.627 683.145 235.651 674.093 229.79C656.41 218.345 634.937 206.558 622.533 189.08C613.406 176.218 606.345 152.433 605.709 136.503C604.85 115.139 605.428 87.2055 620.752 70.3818C638.015 52.5846 661.567 50.9574 684.284 49.8989Z" fill="#52211D"/>
<path d="M863.835 268.22C874.336 267.57 916.102 266.937 924.179 270.417C926.631 271.476 928.027 273.547 928.751 276.047C932.273 288.177 926.707 310.116 932.097 323.588C934.282 329.033 938.358 332.967 943.748 335.214C949.605 337.655 957.209 339.132 963.224 336.609C969.046 334.169 972.924 329.642 975.16 323.833C978.419 315.377 977.853 306.021 977.794 297.131C977.736 288.659 977.952 279.653 974.43 271.751C970.144 262.135 961.262 255.069 953.01 248.969C921.218 225.471 881.046 209.625 864.186 171.221C861.167 164.338 858.369 156.9 856.857 149.521C853.008 130.771 853.622 102.283 860.664 84.4318C866.008 70.8926 876.321 61.3126 889.554 55.6393C913.27 45.4684 961.629 45.9985 985.298 55.594C997.089 60.3752 1013.48 69.1808 1018.7 81.6225C1026.98 94.2354 1029.07 119.392 1027.8 134.639C1027.67 136.259 1026.84 137.845 1025.6 138.974C1019.91 141.36 977.847 139.685 970.197 136.929C969.408 136.644 966.786 135.177 965.875 134.636C965.881 122.29 966.091 115.05 963.942 102.915C956.572 86.1155 938.796 89.2647 926.036 97.5749C917.988 102.813 918.923 140.047 923.116 147.034C937.371 170.819 972.41 183.242 994.514 199.343C1039.84 228.039 1043.76 261.18 1043.77 311.761C1044.89 328.451 1039.43 348.395 1026.49 360.194C994.683 389.179 919.045 389.255 888.363 358.995C866.931 337.859 863.532 296.66 863.835 268.22Z" fill="#52211D"/>
<path d="M1018.7 81.623C1026.98 94.2359 1029.07 119.393 1027.8 134.639C1027.67 136.259 1026.84 137.846 1025.61 138.975C1019.91 141.361 977.847 139.685 970.197 136.93C969.408 136.645 966.786 135.178 965.875 134.637C965.881 122.291 966.091 115.05 963.942 102.916L964.415 102.734C966.488 104.851 967.738 124.398 967.125 127.86C964.929 140.28 984.82 137.618 993.101 138.356C1000.43 139.01 1010.1 138.721 1017.84 138.715C1021.26 136.018 1023.56 135.257 1026.86 132.859C1027.29 123.087 1026.34 109.347 1024.58 99.6424C1023.71 94.8363 1018.52 85.3983 1018.7 81.623Z" fill="#754E4C"/>
<path d="M223.401 413.687C232.348 412.997 257.333 410.643 249.649 426.292C247.281 431.115 239.689 432.357 234.862 433.991C233.832 457.586 239.772 482.923 241.141 506.574C241.36 514.624 245.379 515.567 250.853 520.038C259.894 527.421 251.539 535.156 242.498 535.174C233.033 535.192 223.313 535.921 213.998 535.016C210.798 534.705 206.211 530.774 206.657 527.529C206.451 518.435 218.561 518.034 222.711 513.485C225.661 508.05 218.543 464.35 216.37 456.552C203.293 467.891 192.142 502.469 182.438 508.772C172.301 508.484 153.701 460.476 144.287 457.325L143.48 457.962C141.481 461.893 140.949 471.63 140.508 476.433C139.644 480.358 139.201 508.967 139.662 512.488C140.961 522.418 166.372 515.312 150.393 537.617C145.684 538.338 118.08 539.469 115.267 537.815C94.6171 525.668 117.131 518.181 123.87 515.343C124.62 510.529 124.876 505.627 124.773 500.763C124.298 478.505 125.133 456.322 125.77 434.065C118.174 431.495 108.995 432.924 107.204 422.407C106.339 417.333 110.704 414.715 114.784 414.526C119.563 414.304 136.782 413.651 140.278 416.517C147.383 422.341 152.025 435.531 156.972 443.383C162.133 451.259 175.498 473.557 182.039 478.672C184.078 475.136 186.683 469.169 188.642 465.306C193.605 455.696 198.513 446.059 203.367 436.394C206.4 430.347 209.695 423.167 213.68 417.711C216.267 414.169 219.384 414.123 223.401 413.687Z" fill="#30302E"/>
<path d="M307.436 413.657C314.012 413.277 322.22 414.001 328.988 413.914C336.96 414.047 345.536 413.326 353.446 413.48C361.296 414.382 368.537 412.571 368.837 422.675C369.069 430.452 357.256 433.436 358.229 436.566C364.994 458.336 374.579 479.323 382.413 500.731C383.935 504.887 385.694 509.057 387.912 512.891C390.187 517.979 399.286 520.245 399.45 526.17C399.795 538.587 370.833 535.464 362.494 534.92C358.163 531.921 357.842 530.987 355.972 526.092C357.416 517.25 358.753 516.783 366.994 514.033C365.711 508.278 364.421 504.673 362.079 499.32L358.918 495.176C348.881 495.225 338.843 495.336 328.807 495.509C323.664 495.582 316.014 495.917 311.071 495.425C309.135 499.568 306.791 506.304 306.859 510.934C306.954 517.434 314.345 514.872 318.207 518.871C321.373 520.072 320.597 531.11 317.828 532.134C308.686 535.513 293.02 532.032 282.988 532.331C279.696 532.429 277.631 529.305 276.182 527.475C279.366 516.516 284.819 514.84 288.502 505.631C293.232 493.8 297.327 480.537 301.12 468.298C304.422 457.644 309.78 444.734 312.349 434.224C307.313 431.106 301.109 427.613 299.583 421.477C298.186 415.861 303.453 414.405 307.436 413.657ZM337.5 478.227C340.677 477.989 346.619 477.854 349.074 476.048C350.635 467.697 340.484 444.369 338.304 435.248C337.903 433.569 334.413 433.727 333.098 433.88C327.344 439.931 317.763 469.893 321.912 476.288C324.984 478.685 333.381 478.234 337.5 478.227Z" fill="#30302E"/>
<path d="M609.388 412.065C611.741 411.886 617.563 411.282 619.403 412.094C632.963 418.076 623.345 430.014 614.55 434.002C621.272 451.946 628.881 469.383 636.035 487.142C639.153 494.877 640.853 503.131 645.233 510.31C648.223 515.214 655.919 516.225 657.905 521.954C658.6 523.964 658.127 526.052 657.286 527.93C656.474 529.732 655.633 531.087 653.659 531.784C648.76 533.511 622.229 533.126 617.797 530.899C616.01 529.999 614.778 528.49 614.205 526.578C613.697 524.89 613.82 522.978 614.095 521.265C615.473 512.658 622.305 516.81 624.98 511.759C625.862 506.353 622.13 499.485 619.631 494.797C608.681 494.184 593.141 495.037 581.794 495.204C578.882 495.176 572.685 494.723 570.708 496.824C568.228 499.181 564.727 507.394 564.989 510.613C565.418 515.887 582.019 514.482 582.041 522.522C582.051 526.055 579.444 529.306 576.915 531.651C567.606 534.112 557.497 533.236 547.941 533.081C542.907 532.999 538.046 531.594 536.988 526.295C535.08 516.749 544.554 516.161 547.517 509.293C553.066 496.43 556.901 483.005 561.115 469.682C564.268 459.225 569.942 444.739 571.752 434.451C568.193 430.788 562.495 425.669 561.868 420.359C561.401 416.405 565.78 413.557 569.343 413.243C582.577 412.079 596.061 412.375 609.388 412.065ZM598.73 475.339C602.467 475.252 606.993 475.366 610.182 473.386C612.226 470.027 599.121 436.863 595.29 433.646C594.607 433.475 593.433 433.146 592.791 433.047C588.498 438.129 576.099 469.739 580.512 474.711C584.761 475.892 593.912 475.426 598.73 475.339Z" fill="#30302E"/>
<path d="M865.208 409.592L871.76 409.759C879.755 409.997 885.052 409.674 890.705 416.181C908.475 436.632 925.481 458.14 944.081 477.877C947.193 474.731 948.677 471.756 949.524 467.375C950.721 461.205 951.223 440.424 949.769 434.645C949.29 432.75 948.309 431.198 946.773 429.982C943.257 427.199 937.166 425.921 934.778 422.032C933.715 420.298 933.756 418.139 934.323 416.251C934.901 414.346 935.718 412.052 937.581 411.108C940.717 409.52 969.636 409.544 973.484 410.833C975.131 411.384 976.597 412.338 977.292 413.999C981.286 423.516 970.763 425.339 967.277 429.934C961.507 437.551 970.956 511.663 965.811 526.072C962.459 528.401 959.965 525.767 957.413 523.492C944.39 508.994 905.538 457.767 892.614 450.982C892.03 461.378 892.352 473.221 892.17 483.711C892.036 491.289 891.995 500.211 892.9 507.635C893.414 513.651 899.78 513.042 903.564 515.843C907.085 518.446 905.923 525.124 903.529 528.213C900.3 529.991 868.94 528.775 863.871 527.34L862.224 519.851C866.312 515.697 870.902 515.262 875.212 509.364C876.561 498.513 874.365 475.909 873.944 464.543C873.559 453.971 873.483 439.308 871.579 429.18C865.056 423.726 855.654 423.469 861.809 411.23C862.253 410.347 864.303 409.843 865.208 409.592Z" fill="#30302E"/>
<path d="M463.917 410.204C473.824 409.298 492.512 413.184 500.571 419.152C505.898 423.864 512.531 431.266 514.4 438.08C516.078 444.196 509.802 452.473 504.025 452.942C494.504 453.717 493.779 436.562 485.038 431.957C479.045 427.991 471.865 426.151 464.546 427.603C438.021 432.863 420.284 451.773 425.306 479.772C431.589 514.804 460.475 521.285 491.164 515.309C493.187 514.915 497.332 513.656 498.607 511.394C499.808 507.088 499.831 493.216 498.472 489.396C496.42 487.6 479.215 488.085 474.901 488.053C468.794 487.125 467.254 481.177 468.425 475.875C471.957 469.699 507.105 471.875 514.863 474.312C516.096 481.502 517.083 526.523 513.835 530.91C512.495 532.719 508.371 532.468 506.367 532.117C502.622 531.46 498.882 529.824 495.096 529.542C490.084 529.17 476.796 533.765 470.151 534.387C455.813 535.728 439.231 529.895 428.229 520.748C414.614 509.428 407.726 492.81 406.181 475.453C404.792 459.855 408.734 444.029 418.927 431.904C430.19 418.504 446.742 411.738 463.917 410.204Z" fill="#30302E"/>
<path d="M734.308 412.066C737.923 411.769 763.168 410.851 764.833 412.774C773.155 422.36 760.377 431.061 755.676 438.102C747.938 449.695 739.809 461.628 732.025 473.244C724.041 485.733 711.971 499.58 705.763 512.364C717.396 515.169 746.017 516.196 757.334 511.938C759.764 506.812 761.562 493.569 768.161 492.736C768.845 492.916 769.47 493.146 769.995 493.642C772.267 495.794 772.711 500.036 772.903 502.98C773.295 509 774.918 522.9 770.719 527.394C768.267 530.018 725.764 529.323 719.095 529.445C708.402 530.1 696.822 529.617 686.1 529.464C679.302 529.367 678.894 523.29 679.886 518.059C680.237 516.205 684.354 512.576 685.212 510.652C699.952 483.749 720.065 460.632 736.778 435.102C738.116 433.068 738.46 430.421 738.758 428.042C728.036 426.766 716.578 427.427 705.751 427.45C687.747 427.487 702.142 456.48 681.773 446.573C679.238 445.339 680.394 417.411 680.465 413.764C687.367 413.049 695.339 413.185 702.341 413.026L734.308 412.066Z" fill="#30302E"/>
<path d="M1064.77 410.284C1067.77 410.119 1075.82 409.047 1077.44 411.801C1080.68 417.316 1082.72 436.773 1076.68 440.643C1069.16 445.46 1064.34 426.125 1057.43 425.886C1049.74 425.489 1037.64 424.878 1030.84 428.565C1027.08 431.065 1027.5 454.557 1029.11 456.42C1031.47 459.159 1056.25 458.406 1060.2 458.495C1067.28 479.603 1054.83 474.338 1040.16 474.718C1036.51 474.813 1033.38 475.01 1029.77 475.627C1028.71 485.739 1028.72 495.503 1029.2 505.645L1029.4 505.846C1036.82 513.277 1049.71 512.784 1059.76 512.791C1069.2 506.242 1068.5 496.601 1075.69 494.16C1079.27 495.406 1080.84 496.425 1084.04 498.344C1085.29 508.01 1087.33 525.309 1073.45 526.142C1052.28 527.413 1030.82 527.67 1009.63 526.73C1007.95 526.656 1004.48 525.377 1003.07 524.222C994.584 514.968 1013.08 514.254 1012.51 505.202C1011 481.097 1013.24 454.204 1010.46 430.444C1002.18 423.598 991.138 421.42 1004.74 410.387C1011.55 410.26 1019.85 412.089 1026.64 411.712C1039.76 410.982 1051.6 410.398 1064.77 410.284Z" fill="#30302E"/>
<path d="M798.266 410.289C807.288 409.769 816.673 409.889 825.573 409.732C834.677 409.507 837.872 410.483 837.48 420.505C837.223 427.008 828.026 428.144 823.278 432.815C822.303 440.648 824.621 505.342 827.103 510.054C829.515 514.636 836.78 513.681 839.01 517.791C839.962 519.54 839.519 521.463 838.981 523.252C838.158 525.991 837.492 527.802 834.888 529.21C826.747 529.129 806.12 530.603 799.545 527.586C797.664 526.721 796.164 524.47 795.55 522.507C793.314 515.393 805.472 515.727 807.446 510.702C809.338 505.88 807.621 448.001 806.874 439.715C806.599 436.722 806.033 433.193 804.789 430.443C802.546 425.498 792.992 426.092 791.264 420.362C790.68 418.422 791.468 416.828 792.379 415.171C794.003 412.229 795.042 411.194 798.266 410.289Z" fill="#30302E"/>
<path d="M332.24 365.455C329.822 365.73 329.163 365.948 327.876 364.017L328.275 362.709C331.229 359.571 335.764 356.373 339.992 358.873C341.069 360.522 340.872 361.729 340.83 363.672L340.089 368.618L339.13 372.616C338.059 373.858 338.592 373.479 336.846 373.892C332.759 371.46 335.573 368.563 332.24 365.455Z" fill="#30302E"/>
<path d="M332.24 365.455L333.583 364.032C335.579 363.076 338.525 363.525 340.83 363.671L340.088 368.618L339.13 372.616C338.059 373.858 338.592 373.479 336.846 373.891C332.759 371.459 335.573 368.563 332.24 365.455Z" fill="#4D4142"/>
<path d="M339.13 372.616C337.987 370.268 337.731 372.737 335.371 369.005L336.005 368.04C338.453 367.373 337.504 367.381 340.089 368.619L339.13 372.616Z" fill="#535152"/>
<path d="M1075.52 349.625C1076.32 349.994 1076.58 350.406 1077.16 351.061C1077.54 354.669 1079.55 361.983 1077.8 365.072C1075.79 366.719 1076.72 366.32 1074.31 366.78C1072.02 365.783 1070.19 364.753 1068 363.541C1069.54 357.451 1069.62 352.649 1075.52 349.625Z" fill="#4D4142"/>
<path d="M587.529 364.308C587.529 365.954 588.633 368.937 589.159 370.667C588.756 372.568 589.153 371.999 587.839 373.011C583.883 372.654 577.703 362.726 582.407 358.736C584.744 358.164 585.041 358.175 587.383 358.74L592.271 359.576L589.702 363.983L587.529 364.308Z" fill="#3B3436"/>
<path d="M587.383 358.74L592.271 359.576L589.702 363.984L587.529 364.308L587.383 358.74Z" fill="#4D4142"/>
<path d="M834.298 356.184C838.87 357.269 838.882 363.88 835.956 367.099C833.982 367.826 834.677 367.677 832.312 366.78C830.367 365.967 827.856 365.171 826.601 363.573C825.59 359.301 830.899 357.855 834.298 356.184Z" fill="#4D4142"/>
<path d="M592.271 359.575C594.07 360.065 595.115 360.171 596.342 361.613L596.674 363.004C594.315 365.687 593.095 364.779 589.702 363.983L592.271 359.575Z" fill="#09090B"/>
</svg>
