<svg width="995" height="622" viewBox="0 0 995 622" fill="none" xmlns="http://www.w3.org/2000/svg">
<path d="M808.729 181.902C814.112 174.938 857.478 151.952 866.836 145.842C873.594 141.426 877.801 141.258 880.531 149.644C878.131 159.265 867.569 165.072 860.651 171.602C857.697 174.386 854.34 177.424 851.318 180.112C846.654 185.72 835.45 195.208 829.674 200.939C825.306 205.288 820.972 209.673 816.673 214.094C815.366 215.455 811.508 219.81 810.464 220.656C796.049 236.052 782.178 251.427 767.909 267.202C739.997 298.064 716.05 332.765 694.032 368.044C692.516 370.474 682.673 387.963 681.483 388.845C676.887 396.966 671.615 405.727 667.729 414.199C661.913 426.882 657.545 441.196 650.219 453.057C640.842 468.237 601.48 464.735 594.838 449.11C593.818 447.789 593.351 446.26 592.778 444.696C585.714 425.556 581.113 405.268 576.585 385.398C574.724 377.25 573.048 369.386 570.109 361.546C568.812 359.209 564.988 350.944 565.017 348.105C565.173 333.219 578.329 312.965 585.913 300.599C587.711 297.667 598.977 286.9 601.902 283.425C605.74 287.591 607.319 288.456 612.255 290.931C617.323 294.989 622.249 296.552 624.892 298.595C630.819 300.337 637.5 302.888 639.181 309.562C640.633 315.35 638.962 325.232 636.203 330.552C636.222 333.327 634.789 336.747 635.046 343.127C642.606 336.506 654.261 318.436 662.977 309.078C699.401 269.779 739.108 233.663 781.673 201.124C789.13 195.452 800.582 185.954 808.729 181.902Z" fill="#696969"/>
<path d="M795.442 234.593C800.081 230.174 804.362 224.766 809.225 220.523L810.464 220.657C796.049 236.053 782.178 251.428 767.909 267.203C739.997 298.065 716.05 332.765 694.032 368.044C692.516 370.475 682.673 387.964 681.483 388.845L680.997 388.06C682.353 384.93 686.934 377.773 688.902 374.485C695.878 362.809 703.151 351.314 710.721 340.013C714.695 334.152 719.004 328.087 723.149 322.392C726.136 318.287 717.649 307.959 716.352 302.604C713.835 304.331 705.649 313.618 704.56 314.024C706.742 309.104 718.018 301.088 721.157 296.536C733.677 278.373 749.515 263.1 766.787 249.462C769.469 247.341 774.725 238.795 777.635 238.119C777.155 239.684 773.035 242.907 771.344 245.341L771.703 245.645C773.365 245.447 775.42 244.246 776.606 243.184C783.252 237.223 786.92 236.806 795.442 234.593Z" fill="#8D8D8D"/>
<path d="M570.109 361.546C571.78 361.951 572.606 361.961 573.529 363.77C576.872 370.322 582.653 376.118 586.146 382.311C590.364 389.789 592.181 399.109 594.62 407.286C596.922 415.02 601.178 426.009 599.444 434.373C598.492 438.952 596.752 441.599 596.995 446.761L596.344 447.701C595.256 447.482 595.737 447.707 594.862 446.952C594.945 447.659 595.023 448.019 595.183 448.714L594.838 449.11C593.818 447.79 593.351 446.26 592.778 444.696C585.714 425.556 581.113 405.269 576.585 385.398C574.724 377.25 573.048 369.386 570.109 361.546Z" fill="#8D8D8D"/>
<path d="M808.729 181.902C814.112 174.938 857.478 151.952 866.835 145.842C873.593 141.426 877.801 141.258 880.531 149.644C878.131 159.265 867.569 165.072 860.651 171.602C857.697 174.386 854.34 177.424 851.318 180.112C852.338 174.952 862.055 171.647 861.205 167.56C858.911 165.695 851.109 163.618 848.004 163.796C847.125 163.847 843.321 165.605 841.708 165.82C828.041 167.641 820.316 176.106 809.312 182.374L808.729 181.902Z" fill="#8D8D8D"/>
<path d="M628.492 300.919C626.928 300.436 626.345 300.171 624.882 299.43L624.892 298.595C630.819 300.337 637.5 302.888 639.181 309.562C640.633 315.35 638.962 325.232 636.202 330.552C635.503 328.911 637.13 325.796 636.236 323.117C633.827 315.874 631.189 308.015 628.492 300.919Z" fill="#8D8D8D"/>
<path d="M130.395 113.487C137.012 112.844 145.816 113.219 152.587 113.2C174.5 113.141 209.814 110.183 218.85 136.229C222.463 146.64 221.58 161.477 216.537 171.314C211.107 182.486 200.861 184.908 190.096 188.498C201.577 208.076 215.595 228.52 228.693 247.081C206.657 246.087 209.988 251.879 198.249 232.587C189.258 217.065 181.981 207.053 172.199 192.235C168.692 191.948 162.168 192.157 158.414 192.161L131.285 192.164C131.59 210.154 131.943 229.017 131.686 246.965C126.086 246.541 118.381 246.679 112.632 246.624C113.06 239.2 112.898 231.371 112.986 223.893C113.269 204.818 113.193 185.739 112.759 166.667C112.492 148.911 112.983 131.375 112.119 113.621C118.071 113.675 124.488 113.814 130.395 113.487ZM131.331 176.549C143.216 176.387 180.301 177.858 189.257 174.559C191.903 173.584 194.394 170.772 196.389 168.83C206.079 159.484 206.748 145.865 197.689 135.267C192.509 129.207 181.465 128.004 174.188 128.061C160.161 127.656 144.548 129.154 130.651 128.076C131.825 144.289 130.894 160.457 131.331 176.549Z" fill="#060606"/>
<path d="M397.288 141.587C403.434 141.478 412.706 142.978 418.397 145.193C438.664 153.083 439.788 171.416 439.846 190.079C439.873 198.409 439.852 206.901 439.895 215.251C439.931 222.158 439.246 227.917 442.093 234.235C446.282 234.756 449.552 235.086 453.763 235.277C454.196 239.307 454.725 243.325 455.352 247.328C449.42 247.766 441.369 248.376 435.613 246.864C423.758 243.749 426.185 235.33 422.713 229.418C420.49 230.989 418.008 235.648 416.048 237.726C409.036 245.161 398.615 247.977 388.805 248.727C379.371 249.449 371.582 246.854 364.58 240.87C363.899 240.321 363.235 239.752 362.588 239.164C352.179 229.639 352.593 206.513 362.661 196.583C374.183 185.218 386.35 184.869 401.241 184.241C408.051 183.945 414.863 183.711 421.677 183.537C421.58 177.152 421.737 169.099 417.837 163.75C410.946 154.299 396.37 153.503 386.392 157.953C383.378 159.298 380.994 161.084 378.323 162.998C377.494 165.173 376.943 167.84 376.399 170.14L358.775 167.801C365.946 148.194 378.066 143.631 397.288 141.587ZM381.539 232.55C387.248 235.411 395.41 235.085 401.303 232.941C415.852 227.647 422.778 211.907 419.864 197.236C418.329 197.261 415.489 197.232 414.11 197.487C409.123 197.882 402.775 198.325 397.76 198.306C384.125 198.255 371.081 203.56 372.08 219.35C372.456 225.29 376.582 229.633 381.539 232.55Z" fill="#060606"/>
<path d="M288.398 142.542C310.8 141.288 329.48 151.221 334.491 174.04C336.369 182.595 336.348 190.748 337.599 199.27C325.343 199.204 313.276 199.879 301.061 200.112C288.471 200.353 275.853 200.189 263.242 200.421C264.578 215.938 269.261 231.334 287.592 233.983C300.006 235.776 308.399 231.546 317.987 224.137C318.753 223.575 320.393 222.629 321.266 222.085C323.418 221.998 333.95 222.124 333.565 224.492C331.401 237.798 314.395 245.846 304.014 247.258C291.059 249.67 275.059 248.216 264.124 239.856C242.863 223.602 241.743 179.607 255.912 158.389C263.054 147.695 276.703 144.372 288.398 142.542ZM264.712 185.595C273.97 184.844 286.238 185.119 295.755 185.105C300.916 185.112 314.259 185.589 318.583 184.076C319.407 182.86 319.063 180.451 318.879 178.981C316.729 161.82 303.524 155.325 287.929 156.101C271.271 159.087 265.268 168.908 264.712 185.595Z" fill="#060606"/>
<path d="M598.458 144.693C603.952 144.406 609.622 144.183 615.093 143.759C619.971 160.943 628.754 179.97 634.643 197.12C637.475 205.36 640.726 220.609 644.136 227.846C648.368 214.528 654.135 202.766 658.546 189.683C663.662 174.496 669.968 159.216 674.253 143.862C677.198 143.95 689.766 144.033 691.608 145.132C690.699 149.959 687.041 156.507 685.394 161.42C682.858 168.978 680.045 176.838 676.998 184.205C665.62 211.69 657.113 240.08 643.752 266.728C636.717 280.763 625.431 284.654 612.255 290.931C607.319 288.456 605.74 287.591 601.902 283.425C600.955 280.903 599.575 278.341 600.542 275.93C603.194 274.085 607.922 274.09 611.201 273.656C625.3 271.791 633.559 257.92 637.592 245.368C634.04 240.171 631.767 232.571 629.303 226.671C624.1 214.198 618.659 201.42 614.179 188.673C609.389 175.048 600.649 158.785 598.458 144.693Z" fill="#060606"/>
<path d="M560.824 122.145C565.702 121.954 570.857 122.013 575.759 121.993C575.059 129.93 574.675 136.367 574.938 144.316C580.962 144.157 586.987 144.058 593.016 144.019C593.288 163.827 589.775 157.171 573.786 158.367C574.773 173.543 573.208 189.62 573.733 204.916C574.073 214.805 572.125 224.073 577.678 232.89C581.662 233.825 589.678 234.09 594.221 234.477C594.192 237.291 593.599 240.766 593.2 243.606C593.157 244.713 593.074 245.746 592.982 246.851C592.146 247.675 592.511 247.629 591.451 247.692C582.347 248.257 570.76 248.879 563.35 242.691C555.218 235.898 557.598 221.044 557.277 211.387C556.704 194.017 558.706 175.252 557.171 157.99C555.324 155.575 549.572 158.395 545.389 157.364C543.718 155.15 544.31 147.395 544.354 144.113C549.125 144.149 553.896 144.051 558.662 143.818C559.294 138.093 559.391 128.985 560.022 122.942C560.29 122.676 560.557 122.411 560.824 122.145Z" fill="#060606"/>
<path d="M466.802 105.027C472.755 105.321 478.038 105.767 483.913 104.704C482.975 150.168 482.74 201.405 484.505 246.796C480.18 247.085 471.956 246.784 467.067 246.935C467.078 211.457 466.436 176.03 467.04 140.544C467.237 128.899 467.3 116.631 466.802 105.027Z" fill="#060606"/>
<path d="M512.202 144.532C517.269 144.089 523.794 144.317 528.982 144.374C527.865 159.783 528.186 179.647 528.059 195.243C527.938 210.731 527.433 231.759 529.148 246.778L512.08 247.051C512.546 242.697 512.304 236.138 512.27 231.63L512.221 208.922C512.221 188.081 512.877 165.04 512.202 144.532Z" fill="#060606"/>
<path d="M517.988 105.085C524.323 104.706 530.858 103.511 528.9 112.598C527.87 117.373 528.195 120.687 523.143 122.108C512.002 123.862 507.528 116.895 512.867 106.918C513.62 105.519 516.414 105.31 517.988 105.085Z" fill="#060606"/>
</svg>
