<svg width="754" height="622" viewBox="0 0 754 622" fill="none" xmlns="http://www.w3.org/2000/svg">
<path d="M408.113 85.4302L534.132 85.3944L580.396 85.3698C593.646 85.3561 622.856 84.3677 634.737 88.57C663.468 97.2795 666.454 116.852 666.108 143.717C666.042 148.659 666.137 153.939 666.145 158.909L666.056 218.302L666.093 321.853L666.145 351.562C666.233 374.157 668.832 400.105 644.556 411.492C627.561 419.461 607.831 417.97 589.504 417.933L530.178 417.639L294.789 417.506C280.385 417.635 244.874 416.711 230.123 418.272C224.929 418.821 201.882 443.528 195.829 449.512C184.943 460.181 174.159 470.952 163.48 481.827C160.914 484.434 158.139 486.883 155.651 489.546C143.315 502.734 131.223 516.113 118.709 529.138C117.948 529.93 117.241 530.144 116.196 530.18L115.497 529.853C115.066 528.346 115.187 526.365 115.166 524.767C114.685 489.2 115.768 453.209 113.955 417.697C104.23 417.116 95.0862 417.395 85.384 417.37C79.5648 417.355 71.1839 417.454 65.6677 416.276C64.4664 412.111 63.9403 408.583 63.8306 404.241C63.4403 388.774 63.6807 373.255 63.5397 357.779C63.2334 308.396 63.2636 259.012 63.6299 209.629C63.631 178 62.9971 146.347 63.7698 114.708C63.8806 110.175 63.6568 92.8986 64.6928 89.7171C64.8287 88.2813 65.0698 87.3893 66.0418 86.3899C69.4826 84.7455 105.042 85.3679 111.078 85.3709L182.917 85.3797L366.608 85.6301C380.442 85.3922 394.278 85.3256 408.113 85.4302Z" fill="#040404"/>
<path d="M64.6929 89.7171C64.8287 88.2813 65.0699 87.3893 66.0418 86.3899C69.4827 84.7455 105.042 85.3679 111.078 85.3709L182.917 85.3797L366.608 85.6301C365.355 86.2094 362.339 85.885 360.613 86.1177L159.714 86.3247C139.218 86.1501 118.722 86.0975 98.2253 86.1671C88.6081 86.1549 78.9861 86.0934 69.3704 86.1851C66.5481 86.212 66.3481 88.2768 64.6929 89.7171Z" fill="#1C1C1C"/>
<path d="M408.113 85.4297L534.132 85.394L580.396 85.3693C593.646 85.3557 622.856 84.3673 634.737 88.5696C634.413 88.8122 634.335 89.0207 633.956 88.9551C627.454 87.8271 619.845 86.1559 613.276 86.1147C568.397 85.9074 523.522 86.0514 478.646 86.5467C469.788 86.6789 460.105 85.7306 451.074 86.1957C444.9 86.5135 440.177 88.2234 433.808 88.5688C425.458 89.0218 415.797 85.6647 407.915 86.1736L408.113 85.4297Z" fill="#1C1C1C"/>
<path d="M366.608 85.6297C380.442 85.3918 394.278 85.3252 408.113 85.4297L407.915 86.1736C397.893 86.0974 388.733 87.0777 378.826 87.2795C373.016 87.3981 366.933 86.1291 360.613 86.1173C362.339 85.8846 365.355 86.209 366.608 85.6297Z" fill="#2A2A2A"/>
<path d="M111.527 141.45C118.491 140.65 132.602 140.87 140.33 140.769C148.018 140.664 155.707 140.597 163.395 140.57C176.926 140.518 191.191 140.381 202.515 149.349C210.171 155.412 213.157 161.003 214.236 170.665C214.413 172.368 214.559 174.075 214.676 175.783C215.745 177.331 215.156 207.401 215.482 212.145C215.646 214.534 214.305 221.27 213.951 224.033C211.666 231.186 205.796 238.123 203.403 245.822C205.72 248.014 209.195 250.057 209.813 252.587C213.354 257.577 214.549 260.301 215.006 266.389C217.151 271.499 215.991 285.761 216.172 291.982C216.46 301.872 216.295 312.499 215.796 322.397C215.411 327.567 213.784 334.189 212.029 338.876C209.432 345.814 204.032 350.168 197.706 353.94C190.605 358.173 179.47 358.839 171.39 358.776C170.041 358.765 170.191 359.206 169.645 359.398C165.848 360.738 155.868 360.518 151.895 360.218C147.405 359.88 144.503 358.886 139.88 358.729C130.317 358.404 121.766 359.644 112.454 357.839L111.647 357.466C110.954 356.165 111.75 338.4 111.725 335.328L111.115 250.1C110.958 232.062 110.534 214.798 110.791 196.659L110.918 170.845C110.951 166.952 110.942 159.57 111.531 156.096C111.715 150.99 111.659 146.567 111.527 141.45Z" fill="#9F9F9F"/>
<path d="M111.531 156.097C111.871 159.532 111.764 163.499 114.661 165.871C114.726 164.95 114.785 162.175 114.921 161.452L115.489 161.987C115.057 165.371 115.58 169.3 115.487 172.778C115.246 181.788 115.103 190.789 115.142 199.803L116.006 284.532L115.773 343.82C115.77 346.704 115.079 355.577 115.523 357.629L112.454 357.84L111.647 357.467C110.954 356.166 111.75 338.401 111.725 335.328L111.115 250.101C110.958 232.063 110.534 214.799 110.791 196.66L110.918 170.846C110.951 166.953 110.942 159.571 111.531 156.097Z" fill="#6F6F6F"/>
<path d="M215.007 266.39C217.151 271.5 215.991 285.762 216.172 291.982C216.46 301.873 216.296 312.499 215.796 322.398C215.412 327.568 213.784 334.19 212.029 338.877C209.432 345.814 204.032 350.169 197.706 353.94C190.605 358.174 179.47 358.839 171.391 358.776C170.042 358.766 170.191 359.206 169.645 359.399C165.848 360.738 155.868 360.518 151.895 360.218C147.405 359.88 144.504 358.887 139.88 358.73C130.317 358.404 121.766 359.645 112.454 357.84L115.523 357.629C122.734 358.278 133.053 358.021 140.51 358.133C152.14 358.263 164.818 358.229 176.317 357.96C218.256 356.974 216.072 323.202 215.541 291.474C215.405 283.302 215.533 274.67 215.007 266.39Z" fill="#1C1C1C"/>
<path d="M214.676 175.783C215.744 177.331 215.155 207.401 215.482 212.145C215.646 214.534 214.305 221.269 213.951 224.033C211.666 231.186 205.796 238.123 203.402 245.822C205.719 248.014 209.195 250.057 209.813 252.587C205.561 248.699 200.782 245.181 196.197 241.67C199.28 240.231 203.27 238.211 205.784 235.991C219.363 224.006 213.484 193.803 214.653 176.093L214.676 175.783Z" fill="#1C1C1C"/>
<path d="M163.35 262.374C169.787 262.186 174.831 263.044 175.103 270.672C175.603 284.688 175.392 299.019 175.033 313.048C174.856 319.96 172.177 321.817 165.673 322.567C161.926 322.565 156.359 322.361 152.719 321.86C152.884 302.109 152.759 282.357 152.343 262.61C156.004 262.659 159.688 262.496 163.35 262.374Z" fill="#1C1C1C"/>
<path d="M159.275 174.727C162.856 174.595 166.842 174.628 170.139 176.207C171.634 176.923 173.885 178.41 174.389 180.091C174.882 181.739 175.078 183.546 175.145 185.26C175.341 190.288 175.252 223.775 173.725 226.373C172.575 228.331 171.027 229.016 168.899 229.527C163.518 229.981 158.147 229.635 152.778 229.24C151.98 220.986 152.921 208.387 152.795 199.639C152.687 192.119 151.976 181.95 152.712 174.971L159.275 174.727Z" fill="#1C1C1C"/>
<path d="M535.554 350.258C531.592 347.192 528.982 340.339 527.439 335.634C524.177 325.691 524.914 313.582 524.789 303.15C524.645 288.59 524.582 274.03 524.604 259.469V229.283C524.627 216.681 523.813 203.762 529.939 192.308C539.74 173.984 561.999 173.757 580.164 174.184C589.74 174.409 599.172 174.832 607.942 179.357C617.194 184.342 620.611 190.775 623.508 200.214C626.221 203.184 625.673 219.928 625.746 224.513L626.078 259.771L626.063 298.848C626.056 320.967 628.78 347.633 604.073 357.593C602.096 358.39 599.077 360.332 596.831 360.122C594.427 359.606 592.232 361.9 590.554 361.896C587.664 361.752 584.77 360.813 581.865 361.336C581.136 361.467 578.794 363.207 578.11 363.147C564.944 361.991 550.648 360.916 539.081 353.926C537.439 352.934 536.599 352.398 535.815 350.712L535.554 350.258Z" fill="#9F9F9F"/>
<path d="M535.554 350.258C531.592 347.192 528.982 340.339 527.439 335.634C524.177 325.691 524.914 313.582 524.789 303.15C524.645 288.59 524.582 274.03 524.604 259.469V229.283C524.627 216.681 523.813 203.762 529.939 192.308C539.74 173.984 561.999 173.757 580.164 174.184C589.74 174.409 599.172 174.832 607.942 179.357C617.194 184.342 620.611 190.775 623.508 200.214C626.221 203.184 625.673 219.928 625.746 224.513L626.078 259.771L626.063 298.848C626.056 320.967 628.78 347.633 604.073 357.593C602.096 358.39 599.077 360.332 596.831 360.122C594.427 359.606 592.232 361.9 590.554 361.896C587.664 361.752 584.77 360.813 581.865 361.336C581.136 361.467 578.794 363.207 578.11 363.147C564.944 361.991 550.648 360.916 539.081 353.926C537.439 352.934 536.599 352.398 535.815 350.712C545.31 357.004 553.314 360.086 564.624 360.512C587.24 361.363 615.202 362.315 622.805 335.357C623.895 331.498 624.642 328.116 624.8 324.145C624.222 315.626 624.719 303.524 624.613 294.674C624.473 274.42 624.892 254.134 624.358 233.892C624.016 220.922 625.132 208.126 621.336 195.493C619.2 188.389 606.963 177.247 599.478 177.448L599.158 177.737L599.39 177.869C600.049 178.255 600.424 178.461 600.976 179.002C602.74 180.732 607.047 180.32 608.318 182.51C607.846 182.927 607.681 183.047 607.154 183.392C608.056 185.081 615.313 189.142 615.615 191.099C612.894 188.968 611.697 187.657 608.645 185.624C606.889 184.456 602.92 182.575 601.812 181.785C603.016 182.012 603.509 182.358 604.312 181.894C602.836 179.386 601.694 180.967 600.546 180.666C597.114 179.77 594.975 178.508 591.283 177.955L591.069 177.538C591.868 177.51 593.263 177.551 593.919 177.271C592.174 174.592 580.403 175.118 577.285 175.081C564.76 174.936 551.127 174.893 540.292 182.128C524.358 192.77 525.529 212.4 525.529 229.054L525.543 259.596L525.521 296.776C525.495 308.075 525.171 319.268 526.902 330.503C527.645 335.337 530.985 342.659 533.566 346.87C534.453 348.312 534.961 348.332 535.554 350.258Z" fill="#808080"/>
<path d="M623.508 200.214C626.221 203.184 625.673 219.928 625.746 224.513L626.078 259.771L626.063 298.848C626.056 320.968 628.78 347.633 604.073 357.593C602.096 358.39 599.077 360.332 596.831 360.123C594.427 359.606 592.232 361.9 590.554 361.897C587.664 361.752 584.77 360.813 581.865 361.337C581.136 361.467 578.794 363.207 578.11 363.147C564.944 361.992 550.648 360.916 539.081 353.927C537.439 352.934 536.599 352.398 535.815 350.712C545.31 357.005 553.314 360.086 564.624 360.512C587.24 361.363 615.202 362.316 622.805 335.358C623.895 331.498 624.642 328.116 624.8 324.145C625.297 321.62 625.176 314.083 625.172 311.145L625.132 288.591L625.073 237.164C625.028 225.239 625.415 211.855 623.508 200.214Z" fill="#1C1C1C"/>
<path d="M569.119 209.295C573.905 208.887 580.289 208.258 583.871 211.957C585.388 217.563 584.457 233.724 584.405 240.208L584.346 279.672L584.534 304.803C584.578 310.032 584.821 316.463 584.092 321.638C583.846 323.372 582.207 324.497 580.845 325.382C574.421 327.134 571.092 326.268 566.096 322.147C565.769 316.607 565.942 310.246 565.957 304.645L565.982 277.115C565.982 256.966 565.835 236.774 565.784 216.624C565.776 215.201 565.89 212.571 566.362 211.218C566.726 210.164 568.062 209.744 569.119 209.295Z" fill="#1C1C1C"/>
<path d="M310.645 237.873C310.046 233.179 310.311 227.204 310.252 222.437C310.111 209.36 309.371 196.717 318.319 185.966C328.395 173.86 346.541 174.107 360.921 174.12C375.111 174.133 385.795 176.003 396.991 185.278C407.208 189.903 405.536 217.113 405.533 227.206V263.764C405.529 293.768 405.452 323.774 405.591 353.777C405.599 355.394 405.54 356.844 404.638 358.226C402.808 358.557 400.043 358.584 398.033 358.741C394.708 359.001 390.751 359.946 387.492 359.864C383.31 359.76 369.497 357.567 365.964 358.681C368.757 362.845 400.375 363.297 404.955 361.48C403.614 364.067 377.563 363.629 373.753 363.082C371.588 362.772 368.407 360.679 365.598 360.464L365.482 360.153C361.696 350.326 358.199 360.47 352.356 361.95C347.19 364.443 342.84 365.112 337.132 365.099C334.256 365.093 329.213 365.571 326.827 363.664L326.93 363.285C331.511 365.638 350.702 365.051 352.778 360.264C349.52 360.261 348.801 359.398 345.286 360.168C336.541 362.086 326.689 361.117 319.025 356.257C317.27 355.144 314.558 353.071 314.088 350.993C312.013 348.283 310.808 346.348 309.377 343.286C309.032 342.538 308.72 341.775 308.444 340.999C306.291 334.939 306.504 321.499 306.707 314.681C307.202 298.06 303.239 276.399 317.993 264.766C321.919 261.671 329.831 258.476 334.728 256.798L336.763 255.83C340.232 251.596 358.312 247.011 363.102 242.76C365.739 240.42 364.262 231.182 364.489 227.657C364.357 224.122 365.019 220.415 364.851 216.902C364.155 202.334 352.773 215.306 347.527 215.378C346.129 217.247 348.212 226.19 346.787 228.203C346.625 231.422 346.638 234.661 346.62 237.885C336.042 238.353 321.677 237.807 310.645 237.873Z" fill="#9F9F9F"/>
<path d="M396.991 185.277C407.208 189.903 405.536 217.113 405.532 227.205V263.764C405.529 293.768 405.451 323.773 405.591 353.777C405.599 355.393 405.54 356.844 404.638 358.226C402.808 358.556 400.043 358.584 398.033 358.741C394.708 359.001 390.751 359.946 387.492 359.864C383.31 359.759 369.497 357.567 365.964 358.681C368.757 362.845 400.375 363.297 404.954 361.48C403.614 364.066 377.563 363.629 373.753 363.082C371.588 362.772 368.407 360.679 365.598 360.464L365.482 360.153C361.696 350.326 358.199 360.469 352.356 361.95C347.19 364.443 342.84 365.111 337.132 365.099C334.256 365.092 329.213 365.571 326.827 363.664L326.93 363.285C331.511 365.638 350.702 365.051 352.778 360.263C349.52 360.26 348.801 359.397 345.286 360.168C336.541 362.086 326.689 361.117 319.025 356.257C317.27 355.143 314.558 353.071 314.088 350.993C321.581 357.717 327.897 360.7 338.323 360.264C348.492 359.839 358.006 352.26 365.998 346.455C365.926 349.589 365.711 353.853 365.803 356.909C366.007 357.103 366.436 357.346 366.693 357.508C371.503 357.828 401.486 358.351 404.104 357.009C405.525 350.785 404.693 332.533 404.667 325.571V274.988L404.741 229.871C404.767 215.391 406.828 196.801 396.991 185.277Z" fill="#1C1C1C"/>
<path d="M309.377 343.285C309.032 342.538 308.72 341.775 308.444 340.999C306.291 334.939 306.504 321.498 306.707 314.68C307.202 298.059 303.239 276.398 317.993 264.766C321.919 261.67 329.831 258.475 334.728 256.798C330.068 261.622 316.706 262.825 313.06 271.484C312.003 273.995 310.813 274.697 310.258 277.895C311.068 279.419 312.954 279.983 312.644 282.392C311.994 287.431 311.142 292.417 311.044 297.515C310.353 304.992 312.025 330.747 309.917 336.578C309.499 336.232 309.654 336.303 309.41 335.668C307.777 340.33 309.89 339.849 309.377 343.285Z" fill="#808080"/>
<path d="M347.073 209.391C351.868 208.062 364.042 205.951 364.779 212.592C365.327 217.524 366.198 238.706 364.598 242.751C362.248 245.059 340.48 254.53 336.763 255.829C340.232 251.596 358.312 247.01 363.102 242.759C365.74 240.42 364.262 231.182 364.489 227.656C364.357 224.121 365.019 220.414 364.851 216.901C364.155 202.334 352.773 215.305 347.527 215.377C346.129 217.247 348.212 226.19 346.788 228.202C346.391 224.54 346.644 213.133 347.073 209.391Z" fill="#1C1C1C"/>
<path d="M363.822 278.36L364.942 278.513C365.967 280.274 364.889 313.434 365.056 318.254C365.377 327.521 356.99 329.76 349.535 325.682C346.127 322.638 345.729 319.053 345.884 314.644C346.757 289.795 339.715 287.707 363.822 278.36Z" fill="#1A1A1A"/>
<path d="M483.256 175.86C493.701 178.301 507.036 176.168 518.636 177.972C517.977 186.863 516.166 194.493 514.638 203.256L507.996 243.37L495.199 325.24C494.411 330.468 492.162 354.902 489.713 357.594C486.68 358.323 474.578 358.02 470.598 358L439.864 357.927C439.746 357.523 439.142 355.391 439.014 355.136C437.449 353.656 437.048 347.5 436.757 345.208C433.966 323.252 431.952 300.602 426.393 279.178C425.572 276.019 423.098 271.926 424.453 268.62C426.4 264.108 421.942 257.451 423.772 253.22C423.654 244.636 420.267 232.427 418.879 223.86C416.43 208.727 413.625 193.516 411.887 178.3C422.133 177.791 442.22 176.28 451.862 177.047C453.28 182.515 453.574 190.827 454.274 196.669L458.692 230.806C458.806 230.974 458.924 231.142 459.038 231.311C460.963 237.22 459.218 245.225 462.355 250.658C462.543 250.986 466.177 252.112 466.832 252.393C467.852 252.83 470.123 251.849 471.018 251.373L471.29 251.224C472.579 245.955 470.966 240.083 473.511 234.343C474.453 226.744 475.708 218.346 476.887 210.745C478.503 200.308 480.097 185.762 483.256 175.86Z" fill="#9F9F9F"/>
<path d="M458.692 230.806C458.806 230.974 458.924 231.143 459.038 231.311C460.963 237.22 459.218 245.225 462.355 250.658C462.543 250.986 466.177 252.112 466.832 252.393C467.852 252.83 470.123 251.849 471.018 251.373L471.29 251.224C472.579 245.955 470.966 240.083 473.51 234.343C473.106 243.337 471.765 254.139 470.963 263.131C470.584 267.401 469.442 292.7 468.161 294.771C467.123 295.196 467.642 295.179 466.549 294.758C465.577 283.582 463.894 272.203 462.326 261.084C461.008 251.731 458.714 240.216 458.692 230.806Z" fill="#1C1C1C"/>
<path d="M423.772 253.22C425.524 262.44 426.437 271.982 428.19 281.18C432.854 305.674 435.991 330.397 439.014 355.136C437.449 353.656 437.048 347.5 436.757 345.208C433.966 323.252 431.952 300.602 426.393 279.178C425.572 276.019 423.098 271.926 424.453 268.62C426.4 264.108 421.942 257.451 423.772 253.22Z" fill="#1C1C1C"/>
<path d="M270.094 192.649C273.042 190.046 275.858 185.012 278.888 181.897C284.725 175.894 291.081 175.005 299.145 174.811C299.685 179.682 299.634 183.883 299.661 188.791C299.976 193.61 301.55 213.912 299.032 216.842C297.344 218.806 293.429 217.853 291.212 218.828C289.764 219.465 288.693 221.322 287.31 222.217C286.485 222.751 284.888 223.251 284.408 224.059C286.079 223.974 288.301 223.317 289.94 222.837C294.52 221.496 297.868 220.98 302.65 221.349L302.909 221.607C296.072 221.415 283.311 223.885 279.53 230.134L279.099 230.219C279.111 229.523 279.129 228.962 279.186 228.269C277.035 230.443 271.592 237.624 271.539 240.44C271.326 251.82 272.343 263.091 271.895 274.538C271.576 282.686 272.222 291.876 270.999 299.946C270.432 312.555 271.303 327.03 270.963 339.764C270.811 345.469 271.358 352.278 270.529 357.842C268.609 358.001 266.476 358.014 264.545 358.034C252.899 358.158 241.395 358.255 229.78 357.436C230.536 343.778 230.125 328.763 230.4 314.979C231.312 269.278 229.567 223.178 230.176 177.498C235.379 177.24 241.793 177.417 247.105 177.351C254.049 177.265 262.284 176.86 269.073 177.576C270.481 182.206 270.265 187.831 270.094 192.649Z" fill="#9F9F9F"/>
<path d="M270.826 226.059C278.694 219.315 290.014 219.697 298.593 215.731C298.754 215.657 299.506 214.791 299.509 214.725C299.815 207.464 298.787 196.07 299.608 189.219L299.661 188.791C299.976 193.61 301.55 213.912 299.031 216.842C297.343 218.806 293.429 217.853 291.212 218.828C289.764 219.465 288.693 221.322 287.31 222.217C286.485 222.751 284.888 223.251 284.408 224.059C286.079 223.974 288.301 223.317 289.94 222.837C294.52 221.496 297.868 220.98 302.65 221.349L302.909 221.607C296.071 221.415 283.311 223.885 279.53 230.134L279.099 230.219C279.111 229.523 279.129 228.962 279.186 228.269C277.035 230.443 271.591 237.624 271.539 240.44C271.326 251.82 272.343 263.091 271.895 274.538C271.576 282.686 272.222 291.876 270.999 299.946C270.247 281.49 271.482 262.479 270.658 243.935C270.417 238.524 270.267 231.343 270.826 226.059Z" fill="#1C1C1C"/>
<path d="M64.1093 254.398C66.3989 256.275 65.5212 267.241 64.7271 270.103C64.2739 270.159 64.5456 270.173 63.9407 269.884C63.3203 267.165 63.3811 257.031 64.1093 254.398Z" fill="#2A2A2A"/>
</svg>
