<svg width="1466" height="517" viewBox="0 0 1466 517" fill="none" xmlns="http://www.w3.org/2000/svg">
<path d="M450.33 11.6801C462.027 10.228 477.505 10.7087 489.6 10.7131L550.406 10.7492L630.09 10.7409C644.084 10.7181 661.425 9.64279 675.208 11.0973C722.657 16.1042 766.014 27.0747 804.947 55.7946C877.174 108.498 890.932 218.207 836.393 288.281C801.018 333.732 744.575 354.985 688.846 361.232C666.045 363.787 649.053 364.422 626.134 364.366L565.302 364.253C528.692 364.298 486.595 365.69 450.543 364.091C450.44 358.109 450.456 355.668 451.35 349.621C467.039 348.454 483.559 349.955 497.045 348.821C501.418 349.008 510.954 349.603 514.332 346.511C514.793 346.09 514.635 344.513 514.626 343.722L514.001 143.205L513.989 74.6932C513.988 62.2174 513.631 47.0295 514.281 34.8054C514.724 32.4278 515.183 31.1985 514.113 29.0914C509.194 25.3177 460.324 27.544 450.354 26.8699L450.33 11.6801ZM747.038 317.972C758.548 304.548 759.987 301.588 766.329 285.394C778.741 253.678 779.464 221.311 778.942 187.741C778.741 173.649 779.457 156.65 778.541 142.694C776.386 109.966 766.129 72.2385 739.915 50.4039C701.801 18.6563 647.254 29.6 601.638 26.8816C600.038 31.6928 600.661 80.628 600.623 89.9705L600.487 252.903C600.535 283.896 601.216 316.058 600.327 346.867C605.568 350.554 632.505 347.775 640.544 347.901C679.471 348.509 717.353 346.602 747.038 317.972Z" fill="#565656"/>
<path d="M836.816 11.1112C859.529 10.1292 885.298 10.751 908.34 10.7537L1033.83 10.7401L1200.66 10.7545L1252.36 10.7953C1257.65 10.7981 1266.96 9.14875 1270.79 12.306C1273.89 17.1838 1272.2 21.218 1271.77 26.9578C1259.55 27.2421 1243.6 26.6552 1232.07 27.396C1226.74 35.9075 1221.18 49.8288 1216.99 59.5345L1193.1 115.811C1190.42 122.13 1184.43 137.511 1180.79 142.344C1184.04 148.137 1185.37 152.529 1188.1 158.527C1194.71 173.191 1201.19 187.913 1207.54 202.692C1215.69 221.207 1232.21 255.022 1237.86 273.077L1244.74 275.42L1245.88 275.017C1251.61 268.412 1270.97 221.867 1275.74 211.206L1330.66 85.7636C1334.24 77.4623 1356.01 30.2752 1355.69 24.9057L1355.98 24.3833C1360.98 21.6614 1362.36 21.3885 1367.84 20.8432C1370.81 21.3685 1371.94 21.5928 1375.04 21.437C1377.9 22.2433 1378.88 21.9981 1380.65 24.0198L1380.69 26.551C1378 28.5684 1373.72 31.3853 1372.45 34.2721C1367.97 44.4521 1364.02 54.824 1359.6 65.0882L1332.25 127.791L1264.88 283.059L1239.36 341.746C1235.53 350.636 1231.75 360.039 1227.77 368.896C1227.2 370.169 1224.45 373.058 1223.61 374.467C1223.48 374.77 1222.89 375.37 1222.64 375.655C1217.7 376.398 1209.45 376.126 1204.22 376.109C1198.36 363.78 1194.31 353.595 1189.04 341.084C1185.66 333.048 1179.93 323.754 1176.24 315.347L1145.72 246.091C1141.69 237.038 1137.87 224.036 1131.58 217.142C1129.92 217.998 1126.26 219.7 1125.51 221.26C1121.29 230.04 1117.52 239.448 1113.74 248.418L1093.75 295.03C1085.44 314.201 1077.26 333.427 1069.2 352.705C1067.27 357.186 1060.45 370.751 1059.26 374.348C1056.08 376.841 1044.33 376.435 1039.66 376.596C1034.45 367.65 1031.39 356.763 1026.54 347.971C1020.64 337.245 1017.13 327.664 1012.26 316.668L982.886 250.265L911.025 86.5814C904.926 72.5708 899.156 61.4616 893.022 46.7419C886.916 30.3934 885.405 25.3482 866.085 27.5254C859.6 28.2564 842.879 28.2546 836.565 26.8699L836.25 26.7996L836.966 25.8872L836.816 11.1112ZM1049.65 27.3697C1026.79 27.886 1003.76 27.1772 980.882 27.6403C976.744 27.724 972.585 27.6145 968.498 26.9506C967.625 29.3014 966.73 30.4151 967.825 32.7726C997.023 96.7295 1025.66 160.94 1053.73 225.397C1059.55 238.433 1065.37 251.47 1071.13 264.533C1072.26 267.103 1073.53 272.91 1075.61 273.902L1078.25 273.39C1078.33 272.766 1082.79 263.682 1083.39 262.286L1107.2 207.951C1120.34 177.858 1119.69 190.016 1106.95 160.389L1078.43 93.2802L1058.91 48.2977C1056.22 42.1029 1053.01 32.6486 1049.65 27.3697ZM1180.4 88.9258C1184.75 82.532 1188.96 71.6492 1192.03 64.455C1197.37 51.8963 1202.33 39.2436 1208.37 26.9646C1181.81 27.3378 1155.26 27.3759 1128.71 27.079C1128.22 29.4305 1127.6 30.5245 1128.43 32.6139C1130.8 38.5583 1133.73 44.6984 1136.39 50.514C1141.49 61.615 1146.52 72.747 1151.49 83.909C1153.82 89.1327 1161.36 108.606 1164 112.659C1164.17 112.934 1164.36 113.201 1164.57 113.459C1173.27 113.712 1175.91 94.229 1180.4 88.9258Z" fill="#565656"/>
<path d="M836.966 25.887C847.674 25.9837 877.56 25.2249 886.143 26.6279C889.722 30.9807 897.918 51.867 900.874 58.5329C911.977 82.8935 922.828 107.369 933.415 131.955L1040.35 373.673C1044.58 373.679 1055.78 373.427 1059.26 374.348C1056.08 376.841 1044.33 376.435 1039.66 376.596C1034.45 367.649 1031.39 356.762 1026.54 347.971C1020.64 337.245 1017.13 327.664 1012.26 316.668L982.886 250.265L911.025 86.5812C904.926 72.5707 899.156 61.4615 893.022 46.7417C886.916 30.3933 885.405 25.3481 866.085 27.5252C859.6 28.2562 842.879 28.2544 836.565 26.8697L836.25 26.7995L836.966 25.887Z" fill="#010101"/>
<path d="M1131.58 217.142C1133.97 215.748 1133.3 215.626 1135.39 216.171C1138.86 221.008 1146.62 240.777 1149.71 247.481C1162.71 275.292 1175.31 303.283 1187.52 331.444C1192.91 343.587 1200.67 362.877 1206.56 373.969C1210.09 373.904 1220.85 373.349 1223.61 374.467C1223.48 374.769 1222.89 375.369 1222.64 375.654C1217.7 376.398 1209.45 376.126 1204.22 376.108C1198.36 363.78 1194.31 353.595 1189.04 341.083C1185.66 333.048 1179.93 323.754 1176.24 315.347L1145.72 246.091C1141.69 237.038 1137.87 224.036 1131.58 217.142Z" fill="#010101"/>
<path d="M968.498 26.9503C975.706 25.5538 1047.94 25.2576 1051.58 27.0043C1058.08 36.0556 1074.46 76.9457 1079.62 88.7573L1105.45 147.871C1107.47 152.484 1120.83 180.676 1119.84 184.034C1117.15 193.106 1109.89 208.968 1105.88 217.641C1102.08 225.876 1084.32 271.055 1078.25 273.39C1078.33 272.766 1082.79 263.682 1083.39 262.286L1107.2 207.951C1120.35 177.858 1119.69 190.016 1106.95 160.389L1078.43 93.2799L1058.91 48.2974C1056.22 42.1027 1053.01 32.6484 1049.65 27.3695C1026.79 27.8857 1003.76 27.177 980.882 27.6401C976.744 27.7238 972.585 27.6143 968.498 26.9503Z" fill="#010101"/>
<path d="M203.608 5.03059C208.711 4.81753 226.757 3.49533 228.32 6.92073C236.362 24.5539 249.842 55.147 257.174 71.9283L346.658 273.414L368.838 323.04C372.249 330.878 376.364 338.591 378.246 346.783C393.396 351.269 413.192 347.147 428.992 349.027C434.357 349.666 432.261 360.739 431.662 364.291L317.108 364.416C297.792 364.801 278.47 364.89 259.152 364.683C250.55 364.636 238.84 364.845 230.454 364.185C230.176 359.725 229.64 353.806 229.779 349.456C241.649 348.302 286.26 351.184 292.688 347.396C293.199 345.499 292.547 342.927 291.696 341.136C277.488 311.195 266.517 279.789 251.175 250.365C248.437 245.115 247.171 237.789 244.729 232.305C238.962 219.003 233.46 205.449 227.632 192.198C219.708 174.33 211.9 156.411 204.209 138.442C199.7 128.187 192.923 114.079 189.343 103.682C187.613 101.587 188.343 102.23 185.648 101.165C180.689 102.017 180.098 104.292 179.003 108.82C172.864 121.486 166.776 137.055 161.165 150.222L120.511 247.036C120.215 247.73 118.591 251.307 118.341 251.634C113.128 258.474 83.6139 332.048 83.2374 332.269C68.9038 353.525 87.7084 348.976 101.8 348.659C113.367 349.434 131.237 347.408 142.006 349.867L142.195 364.247C114.278 365.097 86.3069 364.579 58.3836 364.524C40.5745 364.489 22.6364 364.636 4.83902 364.142C4.39891 358.262 4.20294 355.435 4.69555 349.459C15.3525 348.534 45.4432 350.315 53.4053 347.997C59.2597 342.424 102.921 235.708 110.076 219.83C113.049 216.2 124.555 186.955 127.202 180.834L186.053 44.6575L187.273 41.7559C192.248 31.2807 198.629 13.6921 203.608 5.03059Z" fill="#565656"/>
<path d="M625.225 433.459C621.792 433.712 614.741 434.931 612.072 434.183C609.846 432.187 609.741 431.107 610.178 428.086C614.969 426.731 626.038 426.946 631.24 426.987C651.855 427.147 674.961 424.988 693.516 435.972C719.164 451.157 711.897 480.062 683.856 487.44C683.285 487.591 682.71 487.723 682.131 487.836C674.907 492.116 617.264 493.689 610.398 490.926C610.005 489.291 609.418 487.817 609.952 486.312C614.101 484.226 622.814 487.302 625.884 484.182C624.715 469.771 626.662 445.45 625.225 433.459ZM679.09 479.042C685.628 471.387 685.386 464.237 684.769 454.68C683.224 430.756 662.386 435.384 647.373 433.389C647.245 449.727 648.151 469.502 647.566 485.211C656.374 485.794 671.215 486.266 678.118 479.965L678.476 479.646C678.68 479.445 678.885 479.244 679.09 479.042Z" fill="#FAFAFA"/>
<path d="M625.884 484.182C626.531 485.344 626.574 486.308 626.63 487.597C633.295 491.673 678.698 486.381 682.131 487.836C674.907 492.116 617.264 493.689 610.398 490.926C610.005 489.291 609.418 487.817 609.952 486.312C614.101 484.226 622.814 487.302 625.884 484.182Z" fill="#DBDBDB"/>
<path d="M1050.29 497.233C1036.76 486.487 1022.33 450.936 1012.16 435.891C1010.42 433.319 1000.31 435.255 997.574 432.522C997.252 430.003 997.087 430.951 998.182 428.7C1001.94 426.116 1008.09 427.291 1012.64 427.208C1023.42 426.955 1034.19 426.871 1044.96 426.956C1054.7 426.956 1089.61 426.374 1097.92 427.837L1098.27 431.546C1097.3 433.709 1093.91 433.638 1092.33 435.61C1088.41 440.503 1085.51 445.131 1081.41 450.061C1082.93 455.82 1088.8 466.215 1091.68 472.598C1097.99 462.698 1103.1 452.385 1109.91 442.804C1111.83 440.119 1113.72 436.664 1115.43 433.789C1112.13 433.856 1104.56 434.574 1102.32 432.46L1101.37 430.896C1102.09 428.376 1101.51 429.012 1103.45 427.76C1110.39 427.329 1130.31 425.579 1135.95 428.261C1137.01 429.582 1136.96 429.938 1136.99 431.586C1132.21 434.444 1128.95 430.8 1123.09 435.675C1123.12 435.552 1092.88 488.601 1088.86 492.51C1088.22 493.139 1085.66 493.399 1084.51 492.993C1076.97 490.325 1072.99 473.755 1068.55 466.003C1062.33 478.328 1055.86 482.531 1050.29 497.233ZM1054.82 471.252L1058.17 466.347C1059.39 464.237 1061.09 461.062 1062.37 459.106C1058.38 452.445 1050.97 440.394 1047.92 433.435C1043.29 433.882 1038.2 433.506 1033.52 433.287C1039.82 445.941 1048.01 458.049 1054.82 471.252Z" fill="#FAFAFA"/>
<path d="M1102.32 432.46L1101.37 430.896C1102.09 428.376 1101.51 429.012 1103.45 427.76C1110.39 427.329 1130.31 425.579 1135.95 428.261C1137.01 429.582 1136.96 429.938 1136.99 431.586C1132.21 434.444 1128.95 430.8 1123.09 435.675C1124.02 433.564 1125.26 431.362 1127.72 431.41C1124.72 428.876 1107.44 429.755 1103.06 430.337L1102.32 432.46Z" fill="#DBDBDB"/>
<path d="M91.9115 473.913C89.6573 477.678 85.5006 482.12 86.3689 485.847C90.4175 487.54 94.7382 483.577 99.8635 488.092L100.061 490.152C95.3488 493.347 70.627 491.997 63.6723 491.856C61.791 490.483 62.347 491.153 61.6182 488.81C63.3784 480.985 71.0019 491.757 78.2665 480.915C82.8485 474.077 107.462 424.643 113.64 425.532C117.985 428.813 120.282 434.188 123.166 438.392C131.199 450.105 143.762 477.153 154.236 485.583C157.24 485.355 158.61 485.297 161.682 485.51C163.345 487.567 163.164 486.786 163.459 489.211C159.322 494.311 142.327 491.595 135.744 491.877C132.099 492.034 114.657 492.597 112.748 491.093C111.684 481.231 124.665 489.817 127.572 483.725C126.04 481.497 122.294 474.771 120.706 473.983C112.925 473.239 100.33 474.058 91.9115 473.913ZM108.984 466.463C111.936 466.373 112.911 466.814 115.208 465.367C116.441 461.161 109.67 450.678 106.438 449.21C102.568 454.903 99.6652 460.98 96.1871 466.085C100.374 466.221 104.818 466.443 108.984 466.463Z" fill="#FAFAFA"/>
<path d="M127.572 483.725L128.889 484.043C129.204 485.523 128.942 486.183 128.589 487.614C131.232 489.527 149.08 488.183 153.629 488.165L154.381 487.345L154.236 485.583C157.24 485.354 158.61 485.297 161.683 485.51C163.345 487.567 163.164 486.786 163.459 489.21C159.322 494.31 142.327 491.595 135.744 491.877C132.099 492.034 114.657 492.597 112.748 491.092C111.684 481.231 124.665 489.816 127.572 483.725Z" fill="#DBDBDB"/>
<path d="M1155.94 445.962C1156.33 445.856 1156.74 445.766 1157.14 445.693C1167 443.884 1182.73 446.423 1190.92 452.393C1195.23 455.554 1198.07 460.315 1198.82 465.601C1200.97 479.748 1190.56 488.414 1177.39 490.316L1176.79 491.82C1159.02 495.557 1143.25 491.842 1132.79 476.482L1132.93 459.61C1141.58 450.594 1144.15 449.674 1155.94 445.962ZM1171.98 486.79C1176.04 484.023 1178.35 481.681 1180.9 477.414C1181.11 465.551 1183.12 457.621 1171.2 451.016C1167.33 450.948 1162.21 450.661 1158.53 451.455C1148.91 457.361 1145.73 470.972 1151.56 480.441C1153.64 483.759 1156.94 486.13 1160.75 487.047C1163.11 487.592 1169.46 487.173 1171.98 486.79Z" fill="#FAFAFA"/>
<path d="M1348.07 446.622C1360.37 444.869 1397.72 444.99 1408.17 451.537C1415.69 456.251 1417.51 459.304 1419.92 467.353C1418.33 475.22 1414.42 483.854 1406.46 487.015C1393.06 492.407 1380.17 491.958 1366 492.15C1361.38 492.212 1355.34 492.467 1351.06 490.712L1350.89 489.629C1353.04 487.836 1356.78 487.485 1359.65 486.948C1359.68 474.969 1359.59 462.99 1359.38 451.012C1355.68 450.814 1353.8 451.718 1350.02 450.806C1348.1 449.267 1348.67 449.608 1348.07 446.622ZM1375.12 487.07C1379.75 487.492 1391.88 486.666 1395.17 484.359C1399.83 478.967 1403.42 474.211 1402.93 466.839C1401.98 452.789 1388.3 451.17 1377.9 450.714C1377.25 450.921 1375.94 451.178 1375.85 451.637C1374.05 460.211 1375.03 478.381 1375.12 487.07Z" fill="#FAFAFA"/>
<path d="M1206.41 445.754C1220.88 445.232 1252.48 442.913 1265.12 451.41C1269.84 454.584 1268.25 463.351 1262.18 464.368C1259.42 465.108 1256.13 465.811 1253.08 466.441C1253.37 470.578 1263.6 468.523 1265.21 483.427C1265.27 484.029 1265.31 484.632 1265.33 485.236C1268.2 485.67 1271.13 485.772 1273.24 487.695L1273.9 489.295C1269.02 495.65 1255.96 491.582 1250.13 487.925C1247.77 480.14 1247.6 476.6 1241.42 471.528C1237.83 471.631 1234.56 470.335 1230.96 471.548C1229.27 473.937 1229.54 483.68 1231.25 485.86C1232.76 487.777 1239.79 485.608 1242.25 487.689C1243.06 489.803 1243.08 488.977 1242.39 491.039C1240.1 492.463 1212.3 492.788 1207.87 492.664C1206.22 492.619 1205.84 491.731 1204.89 490.546C1206.03 486.326 1212.54 487.691 1212.79 486.275C1214.34 477.252 1213.44 466.079 1213.37 456.706C1213.33 451.409 1208.15 452.936 1205.54 450.245C1205.28 448.142 1205.56 447.717 1206.41 445.754ZM1229.54 453.424L1229.78 464.804C1234.57 464.85 1239.54 465.029 1244.28 464.38C1246.42 464.398 1246.84 463.98 1248.61 462.728C1252.26 454.468 1243.82 452.992 1237.85 452.873C1235.45 453.028 1231.83 453.148 1229.54 453.424Z" fill="#FAFAFA"/>
<path d="M1241.42 471.528C1237.83 471.63 1234.56 470.335 1230.96 471.547C1229.27 473.937 1229.54 483.68 1231.25 485.86C1232.76 487.776 1239.79 485.608 1242.25 487.688C1243.06 489.803 1243.08 488.976 1242.39 491.039C1240.1 492.463 1212.3 492.788 1207.87 492.664C1206.22 492.619 1205.84 491.73 1204.89 490.546C1206.03 486.326 1212.54 487.691 1212.79 486.275C1214.34 477.251 1213.44 466.079 1213.37 456.706C1213.33 451.409 1208.15 452.936 1205.54 450.244C1205.28 448.141 1205.56 447.717 1206.41 445.754C1208.26 452.284 1210.27 449.04 1215.81 453.427L1215.8 488.411C1219.34 488.484 1225.62 488.877 1228.78 487.992C1231.77 484.263 1225.84 477.383 1229.12 471.338C1232.24 468.351 1238.78 468.659 1241.42 471.528Z" fill="#DBDBDB"/>
<path d="M410.846 450.523C410.57 448.489 410.296 447.591 411.17 445.735C414.583 443.828 442.85 444.855 448.122 445.351L441.989 445.909C440.651 449.298 440.24 459.976 441.791 463.219C443.411 463.625 442.82 463.692 444.201 463.215C442.982 465.08 442.935 464.609 440.336 465.523C435.51 463.105 441.03 455.077 435.905 450.264C433.678 449.605 432.634 450.206 430.411 451.014C428.531 457.435 429.567 474.77 427.367 481.479C427.19 485.345 427.101 490.67 426.659 494.399C412.782 487.125 404.245 476.886 393.139 466.223C390.82 463.996 382.815 455.698 380.226 455.245C377.812 459.29 378.385 481.869 379.39 486.896C383.194 489.875 386.731 485.545 388.55 492.012C384.589 494.281 356.978 492.889 351.163 492.007C355.45 491.247 357.984 492.439 362.688 491.357C364.456 489.694 364.036 490.54 364.167 487.891C364.358 487.92 364.548 487.95 364.739 487.977C367.996 488.446 369.268 488.673 371.66 486.875C372.987 484.487 372.571 481.418 372.486 478.618C372.153 476.65 372.452 455.121 372.46 451.922C368.467 451.514 365.423 451.422 361.764 449.747L361.161 447.641C364.175 444.31 385.346 445.275 390.422 445.586C401.253 452.156 414.846 470.576 422.9 474.282C422.151 468.616 421.905 458.349 421.889 452.557C418.821 452.555 412.961 452.988 410.846 450.523Z" fill="#FAFAFA"/>
<path d="M410.847 450.523C410.571 448.489 410.296 447.591 411.171 445.735C414.584 443.828 442.851 444.855 448.123 445.351L441.989 445.909C440.651 449.298 440.241 459.976 441.791 463.219C443.411 463.625 442.82 463.692 444.202 463.215C442.983 465.08 442.935 464.609 440.337 465.523C435.51 463.105 441.031 455.077 435.906 450.264C433.678 449.605 432.635 450.206 430.411 451.014C428.532 457.435 429.567 474.77 427.368 481.479C426.774 475.17 427.842 453.089 426.818 449.533L425.314 448.887C422.629 445.846 417.078 445.548 413.305 446.479C412.346 447.528 412.426 447.971 412.343 449.418L410.847 450.523Z" fill="#BFBFBF"/>
<path d="M410.847 450.522L412.343 449.418C412.426 447.97 412.346 447.528 413.305 446.478C417.078 445.547 422.629 445.846 425.314 448.887C424.893 449.334 424.385 449.873 423.789 450.504C423.769 455.737 423.936 470.119 422.901 474.282C422.152 468.615 421.905 458.348 421.89 452.557C418.822 452.555 412.962 452.987 410.847 450.522Z" fill="#DBDBDB"/>
<path d="M372.486 478.617C373.663 483.506 373.173 486.074 372.796 491.043C375.629 491.942 384.527 491.294 388.55 492.011C384.589 494.28 356.978 492.888 351.163 492.007C355.45 491.246 357.984 492.438 362.688 491.357C364.456 489.693 364.036 490.539 364.167 487.89C364.358 487.92 364.548 487.949 364.739 487.976C367.996 488.446 369.268 488.673 371.66 486.874C372.987 484.486 372.571 481.417 372.486 478.617Z" fill="#DBDBDB"/>
<path d="M890.122 445.051C893.336 443.018 923.136 442.767 926.744 444.491L927.18 446.224L926.078 448.489C923.279 449.385 920.688 449.097 919.829 452.047C923.716 456.464 927.345 460.437 930.709 465.292C935.878 460.524 937.732 458.379 941.79 452.699C938.619 451.097 936.808 451.227 934.89 448.784C934.754 446.437 934.682 447.232 936.107 445.033C938.412 444.723 958.455 444.484 960.595 444.752C962.105 446.076 963.201 448.915 962.449 450.799C960.208 451.891 955.978 451.601 953.322 451.611C945.19 458.197 940.309 465.543 934.41 474.023C933.988 478.034 934.002 482.876 933.916 486.976C937.266 487.008 945.362 486.966 946.994 490.061L946.157 491.466C941.962 493.692 913.48 493.008 908.254 492.186L907.037 490.161C910.18 486.254 915.391 487.113 919.786 487.364L919.435 474.325C916.508 469.359 905.462 457.802 900.394 453.883C899.815 453.434 892.506 451.363 890.874 450.788C889.557 448.157 890.001 448.179 890.122 445.051Z" fill="#FAFAFA"/>
<path d="M890.123 445.051C893.337 443.018 923.137 442.767 926.744 444.491L927.181 446.224L926.079 448.489C923.28 449.385 920.689 449.097 919.83 452.047C919.343 452.036 918.362 451.622 917.918 451.359C912.306 448.037 904.289 447.427 897.947 446.042C894.669 445.877 893.38 445.775 890.123 445.051Z" fill="#010101"/>
<path d="M897.946 446.043C905.026 445.932 920.523 445.444 927.18 446.224L926.078 448.489C923.279 449.385 920.688 449.097 919.829 452.047C919.342 452.036 918.361 451.622 917.918 451.359C912.306 448.037 904.288 447.427 897.946 446.043Z" fill="#BFBFBF"/>
<path d="M941.791 452.699C938.62 451.097 936.809 451.227 934.89 448.783C934.754 446.437 934.683 447.232 936.107 445.033C938.412 444.723 958.455 444.483 960.595 444.752C962.106 446.076 963.201 448.914 962.449 450.798C960.209 451.891 955.978 451.6 953.323 451.611C955.62 449.799 957.374 450.028 960.159 449.964L959.872 447.358C956.307 444.718 951.511 448.458 947.818 449.164C945.162 449.673 943.015 452.381 941.791 452.699Z" fill="#DBDBDB"/>
<path d="M165.491 445.181C185.867 445.732 206.371 445.017 226.862 445.515C227.993 448.552 228.921 461.241 226.94 463.606C220.928 461.409 219.726 449.139 213.093 450.64C209.754 450.974 209.311 450.507 206.816 452.325C205.278 455.448 206.268 459.415 205.515 463.528C205.447 467.924 204.865 482.292 206.015 485.897C210.123 487.84 216.251 488.433 219.16 490.327L219.129 491.25C214.492 493.21 208.126 492.473 202.963 492.269C195.807 491.947 185.444 493.458 178.258 492.591C176.756 492.41 175.734 490.573 175.139 489.271C179.473 488.632 182.156 488.047 186.819 487.571L187.446 487.173C189.148 484.554 187.709 455.99 187.563 451.118C183.651 451.671 178.419 451.992 174.389 452.359C172.726 456.269 174.526 465.509 168.793 464.913C166.282 464.652 166.388 464.532 164.721 462.833C162.926 457.919 164.687 450.56 165.491 445.181Z" fill="#FAFAFA"/>
<path d="M174.389 452.359C177.811 450.006 187.193 447.074 189.268 452.281C192.369 460.063 191.135 472.685 191.019 481.122C190.904 483.252 190.863 485.231 190.367 487.316L189.37 488.066L186.819 487.571L187.446 487.173C189.148 484.554 187.709 455.99 187.563 451.118C183.651 451.671 178.419 451.992 174.389 452.359Z" fill="#BFBFBF"/>
<path d="M191.019 481.122C191.176 483.933 190.81 485.958 192.23 488.03C194.222 488.697 195.996 488.407 198.08 488.24C201.427 489.158 201.726 488.772 202.963 492.269C195.807 491.947 185.444 493.458 178.258 492.591C176.756 492.41 175.734 490.573 175.139 489.271C179.473 488.632 182.156 488.047 186.819 487.571L189.37 488.066L190.367 487.316C190.863 485.231 190.904 483.252 191.019 481.122Z" fill="#DBDBDB"/>
<path d="M198.08 488.24C199.978 488.368 201.265 488.495 203.171 488.3C207.431 483.001 200.089 474.94 205.515 463.527C205.447 467.923 204.865 482.291 206.015 485.897C210.123 487.839 216.251 488.433 219.16 490.326L219.129 491.249C214.492 493.21 208.126 492.472 202.963 492.269C201.726 488.772 201.427 489.158 198.08 488.24Z" fill="#EFEFEF"/>
<path d="M745.978 440.812C749.378 447.906 770.252 480.83 775.269 486.754C778.297 487.017 779.579 486.984 782.12 488.812L782.642 490.272C781.905 491.715 782.349 491.265 781.01 492.046C776.493 493.457 748.841 494.317 745.663 490.429L746.343 488.851C748.727 487.019 752.055 486.802 755.09 486.298C755.234 483.106 755.527 481.986 754.067 479.515C748.977 478.661 731.64 480.437 729.908 479.691C728.412 482.485 727.653 482.828 727.825 485.688C730.91 489.865 735.37 487.999 736.801 490.362C736.128 491.316 735.864 492.116 734.962 492.217C727.259 493.083 718.097 492.894 710.302 492.784L709.307 491.107C722.027 484.018 718.942 486.922 726.264 474.523C732.843 463.391 739.586 452.09 745.978 440.812ZM749.321 473.05C746.486 469.466 745.32 463.817 740.173 465.333C737.832 467.339 736.665 469.942 735.191 472.652C738.433 474.71 746.007 474.685 749.321 473.05Z" fill="#FAFAFA"/>
<path d="M754.346 478.912C756.966 480.038 756.179 479.345 757.782 481.622C758.154 483.971 756.501 487.099 757.868 487.564C761.247 488.716 772.735 489.223 775.269 486.754C778.297 487.017 779.579 486.984 782.12 488.812L782.642 490.272C781.905 491.715 782.349 491.265 781.01 492.046C776.493 493.458 748.841 494.317 745.663 490.429L746.343 488.851C748.727 487.019 752.055 486.802 755.09 486.298C755.234 483.106 755.527 481.986 754.067 479.515L754.346 478.912Z" fill="#DBDBDB"/>
<path d="M735.19 472.652C738.433 474.71 746.006 474.685 749.32 473.05C749.871 474.733 750.237 475.803 750.967 477.418C752.098 477.953 753.164 478.487 754.345 478.912L754.066 479.515C748.977 478.661 731.64 480.437 729.907 479.691C730.609 478.576 732.613 478.208 734.109 477.691C735.698 475.756 735.419 475.585 735.19 472.652Z" fill="#DBDBDB"/>
<path d="M535.488 443.081C539.054 445.403 559.891 480.458 564.385 487.131C567.55 487.681 571.726 487.771 574.031 489.685L573.874 490.778C569.048 493.037 539.706 493.438 536.428 490.703C538.296 486.769 547.051 487.305 545.676 482.291C543.529 480.339 543.058 480.025 540.341 479.017C534.844 478.901 515.259 476.44 517.638 486.212C519.635 488.338 523.788 488.811 527.025 490.133L526.91 491.098C523.188 493.745 505.722 492.506 501.072 491.786L500.44 490.83C501.215 484.482 507.405 489.324 509.507 485.519C516.337 473.154 525.783 453.081 535.488 443.081ZM529.215 473.653C532.183 473.463 535.194 473.222 538.164 473.23C536.235 469.054 534.398 464.841 531.972 460.931C530.055 463.659 525.464 469.407 525.179 472.483C526.142 473.681 527.668 473.896 529.215 473.653Z" fill="#FAFAFA"/>
<path d="M448.123 445.351C465.937 445.247 485.264 444.899 502.996 445.376C503.134 450.719 504.231 460.061 501.273 464.153C499.105 465.191 499.914 465.148 497.655 464.867C495.823 463.188 495.851 460.962 495.741 458.553C495.678 457.088 495.634 455.622 495.609 454.155C488.534 451.72 486.614 451.325 479.219 450.982C478.382 462.99 479.649 478.072 478.707 487.569L479.101 487.661C483.556 488.65 489.303 487.159 491.568 490.275C490.82 491.621 491.137 491.517 489.987 492.17C485.347 493.37 451.106 494.576 449.568 490.264C451.527 487.876 458.253 488.204 463.255 486.708L463.09 455.306C462.791 452.198 463.318 453.062 461.344 451.197C454.066 449.416 447.392 457.625 444.201 463.215C442.82 463.692 443.411 463.625 441.791 463.219C440.241 459.976 440.651 449.297 441.989 445.909L448.123 445.351Z" fill="#FAFAFA"/>
<path d="M463.089 455.306C468.558 466.414 463.96 484.281 466.452 488.129L468.024 488.181C471.636 488.158 475.17 488.284 478.707 487.569L479.101 487.66C483.556 488.649 489.303 487.159 491.568 490.275C490.82 491.621 491.137 491.517 489.987 492.17C485.347 493.37 451.106 494.575 449.568 490.263C451.527 487.875 458.253 488.204 463.255 486.708L463.089 455.306Z" fill="#DBDBDB"/>
<path d="M468.024 488.182C471.637 488.159 475.171 488.285 478.707 487.569L479.102 487.661C483.556 488.65 489.304 487.16 491.568 490.275C490.82 491.622 491.138 491.518 489.988 492.171C485.319 491.589 478.803 492.194 474.192 490.835C472.55 490.352 471.098 489.111 468.024 488.182Z" fill="#EFEFEF"/>
<path d="M302.285 486.169C305.761 477.821 321.351 449.845 327.054 444.357C331.488 443.654 352.29 480.859 356.247 486.813L364.167 487.89C364.036 490.539 364.456 489.693 362.688 491.357C357.984 492.438 355.45 491.246 351.163 492.007C347.406 492.026 330.797 492.495 328.457 491.379L327.63 489.769C328.935 487.818 329.705 487.64 332.27 487.135C334.352 486.746 336.438 486.386 338.529 486.053L339.23 484.865C338.421 482.455 336.655 480.607 335.031 478.637C328.418 478.646 309.487 477.101 308.908 486.01C311.847 488.694 315.813 485.596 319.15 487.838C320.313 489.764 320.135 488.9 319.857 491.084C317.464 493.689 305.537 492.623 301.792 492.532L300.517 491.681C299.953 488.058 302.197 490.649 302.285 486.169ZM327.09 474.092L329.602 473.379C330.526 470.94 325.682 462.374 323.921 460.919C321.319 464.977 318.051 468.45 318.993 472.763C321.598 474.765 323.638 474.235 327.09 474.092Z" fill="#FAFAFA"/>
<path d="M841.382 445.96C850.616 445.773 859.858 445.679 869.092 445.68C870.366 447.458 870.38 447.789 870.624 449.982C868.483 452.879 863.05 451.972 859.543 451.91C859.521 456.806 858.369 485.262 860.752 487.557C860.946 487.747 860.96 487.737 861.218 487.903C866.049 487.538 870.781 487.204 875.584 486.523C882.456 485.547 885.999 475.551 891.125 473.245C894.539 474.894 893.179 487.865 892.85 491.812L880.552 491.966C878.047 492.361 875.527 492.645 872.993 492.815C866.694 493.208 837.911 493.833 834.088 490.442L834.303 489.096C836.336 486.871 839.213 486.637 842.213 485.996C843.143 476.521 842.449 461.589 841.747 452.211C839.679 452.031 838.025 451.856 835.978 451.516C833.959 449.728 834.424 450.57 833.737 448.142L834.682 446.676C836.665 445.367 838.977 445.808 841.382 445.96Z" fill="#FAFAFA"/>
<path d="M861.217 487.902C866.049 487.538 870.781 487.203 875.584 486.522C882.456 485.546 885.999 475.551 891.124 473.245C894.539 474.894 893.179 487.865 892.85 491.811L880.552 491.966C872.127 490.897 862.527 493.14 854.274 489.683C852.42 488.905 848.877 488.618 846.779 488.381C850.179 488.277 854.761 488.685 857.266 487.074C858.92 487.299 859.607 487.425 861.217 487.902Z" fill="#EFEFEF"/>
<path d="M886.815 482.068C888.999 482.314 888.383 481.936 889.829 483.311C890.452 485.58 889.872 486.6 889.049 488.86C887.295 487.852 887.002 487.588 885.57 486.151C885.334 483.839 885.463 484.449 886.815 482.068Z" fill="#FAFAFA"/>
<path d="M841.747 452.211C839.679 452.031 838.025 451.856 835.978 451.515C833.959 449.727 834.424 450.57 833.737 448.142L834.682 446.676C836.665 445.367 838.977 445.808 841.382 445.959C845.455 451.627 846.071 447.668 849.478 449.296C847.431 449.313 844.36 449.024 842.835 450.175L842.878 451.271L844.94 452.837C845.842 459.939 846.121 481.59 844.038 487.793C845.19 488.162 845.591 488.357 846.78 488.381C848.877 488.618 852.42 488.905 854.274 489.683C862.528 493.14 872.127 490.897 880.552 491.966C878.047 492.361 875.527 492.645 872.993 492.815C866.694 493.208 837.911 493.833 834.088 490.442L834.303 489.095C836.336 486.871 839.213 486.636 842.213 485.996C843.143 476.521 842.449 461.589 841.747 452.211Z" fill="#DBDBDB"/>
<path d="M841.383 445.96C850.617 445.773 859.858 445.679 869.092 445.68C870.366 447.458 870.381 447.789 870.624 449.982C868.484 452.879 863.051 451.972 859.543 451.91C859.522 456.806 858.369 485.262 860.753 487.557C860.946 487.747 860.96 487.737 861.218 487.903C859.608 487.425 858.92 487.3 857.267 487.074C856.379 480.917 856.651 457.182 857.088 450.623C855.041 449.034 852.192 449.357 849.479 449.296C846.071 447.668 845.456 451.627 841.383 445.96Z" fill="#979797"/>
<path d="M841.383 445.96C850.617 445.773 859.858 445.679 869.092 445.68C867.367 452.923 863.602 450.009 857.088 450.623C855.041 449.034 852.192 449.357 849.479 449.296C846.071 447.668 845.456 451.627 841.383 445.96Z" fill="#DBDBDB"/>
<path d="M1283.46 445.994C1291.33 446.216 1312.42 445.006 1318.03 447.645C1319.37 449.366 1319.11 448.564 1319.09 450.644C1314.48 452.453 1312.84 449.133 1307.45 451.863C1307.39 460.415 1307.93 479.758 1307.32 487.149C1313.64 487.204 1326.91 488.051 1332.13 483.772C1333.84 482.38 1338.31 469.724 1343.69 474.195C1345.1 479.042 1342.23 487.271 1340.57 491.97C1333.32 491.972 1285.23 492.619 1281.76 491.077L1281.05 490.069C1282.57 487.601 1284.1 487.676 1286.89 487.788C1288.55 487.387 1289.42 487.08 1291.02 486.474C1293.41 483.2 1291.51 457.611 1291.2 451.699C1288 451.655 1283.29 452.123 1280.97 450.21C1280.35 447.895 1280.33 448.804 1281.02 446.528L1283.46 445.994Z" fill="#FAFAFA"/>
<path d="M1283.46 445.994C1291.33 446.216 1312.42 445.006 1318.03 447.645C1319.37 449.366 1319.11 448.564 1319.09 450.644C1314.48 452.453 1312.84 449.133 1307.45 451.863L1306.72 449.91C1303.65 448.61 1296.1 447.967 1293.57 450.448L1293.06 452.379C1290.19 446.832 1287.83 452.112 1283.83 449.006L1283.46 445.994Z" fill="#EFEFEF"/>
<path d="M1291.2 451.699C1288 451.655 1283.29 452.124 1280.97 450.21C1280.35 447.895 1280.33 448.805 1281.02 446.528L1283.46 445.994L1283.83 449.006C1287.83 452.112 1290.19 446.832 1293.06 452.379C1293.85 462.284 1295.17 472.83 1294.15 482.673C1293.64 487.595 1291.25 488.246 1286.89 487.789C1288.55 487.388 1289.42 487.08 1291.02 486.475C1293.41 483.2 1291.51 457.612 1291.2 451.699Z" fill="#BFBFBF"/>
<path d="M226.863 445.515C230.152 445.48 234.933 445.24 238.066 445.362C242.555 445.274 266.754 444.621 269.168 446.762C269.734 448.903 269.713 449.23 269.499 451.442C266.766 451.43 262.534 451.55 259.929 451.385C257.74 463.583 258.771 474.253 259.11 486.575C263.34 486.65 269.759 486.953 273.776 486.4C270.933 489.319 260.914 489.486 257.404 486.871C254.959 488.56 246.125 489.208 243.971 487.579C241.332 487.63 235.476 487.891 233.162 487.429C234.669 487.043 240.122 486.795 241.957 486.679C242.257 475.176 241.513 463.043 241.005 451.503C237.327 450.889 233.797 451.041 230.072 451.075C230.243 455.422 231.198 462.772 228.359 465.915C222.006 466.384 221.657 454.904 213.094 450.64C219.727 449.139 220.929 461.409 226.941 463.606C228.922 461.241 227.994 448.552 226.863 445.515Z" fill="#FAFAFA"/>
<path d="M226.863 445.515C230.152 445.481 234.933 445.241 238.066 445.362C235.946 445.773 233.917 445.906 232.54 447.546L232.597 448.698C237.673 451.455 239.362 449.397 243.925 451.947C244.744 461.124 244.108 477.627 243.971 487.579C241.332 487.63 235.476 487.892 233.162 487.43C234.669 487.044 240.122 486.795 241.957 486.679C242.257 475.176 241.513 463.043 241.005 451.503C237.327 450.89 233.797 451.042 230.072 451.076C230.243 455.422 231.198 462.773 228.359 465.916C222.006 466.384 221.657 454.905 213.094 450.64C219.727 449.14 220.929 461.409 226.941 463.606C228.922 461.242 227.994 448.552 226.863 445.515Z" fill="#979797"/>
<path d="M238.065 445.362C242.554 445.274 266.754 444.621 269.167 446.762C269.733 448.903 269.713 449.23 269.499 451.442C264.345 449.813 262.669 449.859 257.459 450.291C254.92 448.914 246.667 448.404 244.331 450.514L243.924 451.946C239.362 449.396 237.672 451.454 232.597 448.698L232.54 447.546C233.917 445.905 235.946 445.773 238.065 445.362Z" fill="#DBDBDB"/>
<path d="M257.459 450.292C262.669 449.86 264.344 449.813 269.498 451.443C266.765 451.431 262.533 451.551 259.928 451.386C257.739 463.584 258.77 474.254 259.109 486.576C263.339 486.651 269.758 486.954 273.775 486.401C270.933 489.319 260.913 489.486 257.404 486.872C255.095 481.545 254.298 455.174 257.459 450.292Z" fill="#DBDBDB"/>
<path d="M799.822 453.828C794.689 447.959 788.755 455.2 789.113 447.265L790.065 445.772C795.176 444.776 817.853 445.407 823.315 446.266C824.911 447.703 824.432 447.283 824.654 450.024C822.42 452.438 818.497 451.693 815.305 451.569C814.475 458.834 814.99 483.637 814.31 486.409C813.379 485.043 812.506 483.212 811.733 481.717C811.669 483.129 811.919 485.594 810.895 486.444C807.961 488.888 802.843 488.285 799.614 486.903C799.535 479.355 798.848 460.289 799.822 453.828Z" fill="#FAFAFA"/>
<path d="M799.822 453.828C794.689 447.959 788.755 455.2 789.113 447.265L790.065 445.772C795.176 444.776 817.853 445.407 823.315 446.266C824.911 447.703 824.432 447.283 824.654 450.024C822.42 452.438 818.497 451.693 815.305 451.569C814.475 458.834 814.99 483.637 814.31 486.409C813.379 485.043 812.506 483.212 811.733 481.717C811.576 473.401 811.468 462.676 811.783 454.193C811.797 453.714 813.859 450.646 814.274 450.03L813.787 449.23C810.903 448.808 805.577 448.887 802.606 449.416C801.01 449.7 800.616 452.109 799.822 453.828Z" fill="#DBDBDB"/>
<path d="M1355.69 24.9053C1356.01 30.2748 1334.24 77.4618 1330.66 85.7632L1275.74 211.206C1270.97 221.867 1251.61 268.412 1245.88 275.017L1244.74 275.419C1245.44 272.024 1255.28 251.443 1257.48 246.579L1289.64 175.01C1291.27 171.287 1291.5 166.766 1293.02 163.507C1295.15 158.752 1298.34 154.061 1300.32 149.264C1307.46 132.052 1315.59 115.184 1323.04 98.1454C1331.32 79.1797 1337.76 59.2324 1347.37 40.8322C1350.1 35.5976 1352.4 29.7823 1355.69 24.9053Z" fill="#010101"/>
<path d="M291.678 471.283C298.636 474.041 290.932 483.067 295.512 486.833L298.679 487.635C301.172 487.415 300.27 487.754 302.285 486.17C302.197 490.65 299.953 488.058 300.517 491.682L301.793 492.533L279.27 492.048C271.404 492.055 234.629 493.369 230.862 490.459L231.1 488.858L233.162 487.43C235.476 487.892 241.332 487.63 243.97 487.579C246.125 489.209 254.959 488.561 257.404 486.872C260.914 489.486 270.933 489.319 273.776 486.401C287.974 486.689 283.088 475.268 291.678 471.283Z" fill="#EFEFEF"/>
<path d="M279.27 492.047C284.645 486.065 284.573 490.362 291.363 488.555L292.401 486.37C294.023 489.452 295.353 488.5 298.679 487.635C301.171 487.414 300.27 487.754 302.285 486.17C302.197 490.65 299.953 488.058 300.517 491.682L301.793 492.533L279.27 492.047Z" fill="#DBDBDB"/>
<path d="M291.678 471.283C298.636 474.041 290.932 483.067 295.512 486.833L298.679 487.635C295.353 488.5 294.023 489.452 292.401 486.371C292.898 481.228 293.16 476.279 291.678 471.283Z" fill="#404040"/>
<path d="M1378.91 10.1876C1389.92 9.99723 1401.93 8.80319 1412.59 11.0986C1418.41 12.3499 1422.56 19.0969 1419.86 24.4993C1412.95 30.3597 1395.55 17.4654 1387.68 17.9444C1382.68 18.249 1379.64 20.6791 1375.04 21.4369C1371.94 21.5927 1370.81 21.3684 1367.84 20.8431L1363.92 20.1887C1370.98 20.0382 1375.02 17.4072 1381.93 16.0842C1387.31 15.055 1397.57 15.6756 1401.75 12.5045C1399.37 10.323 1382.66 10.9782 1378.89 11.0216L1378.91 10.1876Z" fill="#565656"/>
<path d="M1355.98 24.3831C1349.87 16.2114 1325.68 23.7615 1317.5 16.0044L1317.58 14.8388C1321.63 10.5011 1341.12 12.844 1347.45 12.4566C1357.91 11.8153 1368.46 11.0123 1378.91 10.1875L1378.89 11.0215C1374.3 11.6639 1361.88 12.4269 1358.98 15.4023C1358.89 18.593 1361.18 19.0598 1363.92 20.1886L1367.84 20.843C1362.36 21.3883 1360.98 21.6612 1355.98 24.3831Z" fill="#535353"/>
<path d="M1378.89 11.0209C1382.66 10.9775 1399.37 10.3223 1401.75 12.5038C1397.57 15.6749 1387.31 15.0543 1381.93 16.0835C1375.02 17.4065 1370.98 20.0375 1363.92 20.188C1361.18 19.0591 1358.89 18.5924 1358.98 15.4016C1361.88 12.4263 1374.3 11.6633 1378.89 11.0209Z" fill="#575757"/>
<path d="M811.733 481.717C812.506 483.212 813.379 485.043 814.31 486.408C818.047 488.04 822.971 488.086 824.84 489.43C824.768 491.341 825.069 490.616 823.544 492.104C818.39 493.31 790.931 494.476 788.641 490.031C791.497 486.925 795.455 487.186 799.614 486.903C802.843 488.285 807.961 488.887 810.895 486.444C811.919 485.594 811.669 483.129 811.733 481.717Z" fill="#EFEFEF"/>
<path d="M835.577 26.8429C834.124 24.1676 832.728 14.7963 834.525 11.8028C834.739 11.4444 836.293 11.2244 836.815 11.1113L836.965 25.8873L836.25 26.7998L835.577 26.8429Z" fill="#151515"/>
</svg>
