<svg width="1537" height="622" viewBox="0 0 1537 622" fill="none" xmlns="http://www.w3.org/2000/svg">
<path d="M98.9122 124.072C100.036 110.062 106.214 98.4478 121.991 97.564C137.958 96.6703 154.526 97.0898 170.579 97.0605L266.392 97.0785L339.442 97.1138C354.294 97.0785 368.855 96.8797 383.592 97.6765C397.73 98.4411 412.387 105.627 413.313 121.346C414.047 133.775 413.801 146.674 413.849 159.152C413.94 185.02 413.876 210.887 413.658 236.754L413.519 297.132C413.524 309.114 414.734 333.998 410.504 344.467C408.807 350.882 404.229 357.369 400.332 362.63C388.001 379.276 327.497 447.901 312.256 457.323C306.087 461.136 300.262 462.207 293.124 462.913C279.806 464.229 266.001 463.764 252.621 463.884C227.359 464.101 202.096 464.141 176.833 464.004C158.046 463.941 136.816 464.508 118.095 462.609C112.857 462.077 104.244 454.675 101.813 450.09C99.4923 445.714 98.5947 437.607 98.4476 432.605C98.2772 405.319 98.5174 377.865 98.5159 350.576L98.7786 185.417C98.8244 178.08 97.7812 128.474 98.9122 124.072Z" fill="#575757"/>
<path d="M98.9121 124.072C100.036 110.062 106.214 98.4478 121.991 97.564C137.958 96.6703 154.526 97.0898 170.579 97.0605L266.392 97.0785L339.442 97.1138C354.294 97.0785 368.855 96.8797 383.592 97.6765C397.73 98.4411 412.387 105.627 413.313 121.346C414.047 133.775 413.801 146.674 413.849 159.152C413.94 185.02 413.876 210.887 413.658 236.754L413.519 297.132C413.524 309.114 414.734 333.998 410.504 344.467C409.272 342.041 410.902 338.039 411.113 334.995C411.46 329.973 411.466 325.111 411.491 320.084C412.083 262.903 412.215 205.719 411.891 148.536L412.056 149.314C412.612 136.947 415.359 115.522 404.787 106.999C399.033 102.361 392.093 99.8629 384.764 99.4787C370.87 98.7509 357.266 98.3233 343.338 98.318L272.959 98.33L181.536 98.2865C162.52 98.2572 142.75 97.5137 123.81 99.039C98.2457 101.098 105.516 116.815 99.2086 123.761C99.1125 123.868 99.0112 123.969 98.9121 124.072Z" fill="#797979"/>
<path d="M310.676 197.989C351.354 195.462 386.407 226.318 389.048 266.979C391.69 307.639 360.923 342.769 320.261 345.524C279.436 348.29 244.127 317.383 241.475 276.561C238.823 235.739 269.837 200.525 310.676 197.989Z" fill="#F9F9F9"/>
<path d="M312.21 234.963C332.379 233.108 350.257 247.893 352.215 268.047C354.175 288.2 339.478 306.15 319.33 308.212C299.034 310.289 280.921 295.465 278.948 275.164C276.975 254.863 291.894 236.831 312.21 234.963Z" fill="#575757"/>
<path d="M215.389 199.788C220.867 199.501 227.753 199.784 233.336 199.865C233.615 212.236 233.468 225.028 233.483 237.432C217.64 235.64 201.253 232.389 188.576 244.673C183.7 249.446 180.265 255.494 178.664 262.125C176.362 271.358 177.172 289.842 177.259 299.963C177.422 313.337 177.373 326.712 177.113 340.084L138.07 339.904L137.585 339.743C135.888 337.751 137.433 313.793 137.43 309.136C137.371 274.54 137.038 239.945 136.432 205.354C149.834 205.362 163.236 205.229 176.636 204.955C177.129 211.078 177.535 217.207 177.854 223.341C178.003 223.138 178.153 222.937 178.304 222.737C187.494 210.56 200.133 201.878 215.389 199.788Z" fill="#F9F9F9"/>
<path d="M846.018 205.788L846.333 205.768C870.214 204.258 883.445 211.518 900.578 226.635L900.563 208.043C912.984 208.083 925.405 207.999 937.825 207.791C938.155 237.115 938.305 266.44 938.283 295.765C938.305 315.151 939.161 334.018 936.977 353.012C930.966 405.26 885.449 419.469 839.369 413.271C826.693 411.567 798.835 404.842 790.887 394.31C790.842 392.232 792.808 390.15 794.122 388.397C799.833 382.032 809.484 367.708 814.798 360.264C835.729 381.648 885.088 389.95 894.8 353.17C896.961 344.993 896.871 339.845 896.871 331.498C874.034 352.525 842.28 353.172 817.012 335.604C784.515 313.007 781.919 260.655 803.795 230.054C813.784 216.071 829.275 208.494 846.018 205.788ZM870.581 310.196C889.231 307.116 901.907 289.582 898.98 270.914C896.06 252.247 878.627 239.427 859.932 242.194C841.012 244.993 827.999 262.674 830.956 281.566C833.92 300.457 851.714 313.315 870.581 310.196Z" fill="#232323"/>
<path d="M1025.26 203.646C1066.1 197.061 1104.55 224.819 1111.14 265.648C1117.72 306.476 1089.96 344.915 1049.13 351.508C1008.28 358.101 969.826 330.343 963.237 289.509C956.647 248.676 984.416 210.232 1025.26 203.646ZM1041.16 312.792C1060.56 310.369 1074.37 292.762 1072.1 273.353C1069.84 253.944 1052.33 239.995 1032.9 242.107C1013.25 244.242 999.103 261.982 1001.4 281.612C1003.69 301.243 1021.55 315.244 1041.16 312.792Z" fill="#232323"/>
<path d="M1222.09 208.009L1263.82 207.943C1263.69 226.202 1263.43 244.46 1263.05 262.715C1262.74 289.913 1263.51 318.34 1263.93 345.608C1250.31 345.836 1236.4 345.773 1222.74 345.832C1222.67 339.515 1222.63 334.416 1221.91 328.094C1219.71 330.982 1217.52 333.883 1214.96 336.461C1206.13 345.378 1194.11 350.396 1181.56 350.399C1169.21 350.366 1155.56 345.413 1146.78 336.563C1128.01 317.653 1130.94 288.045 1131.28 263.466L1132.07 208.195C1145.37 207.799 1160.04 208.112 1173.46 208.151C1173.17 225.182 1173.04 242.215 1173.08 259.247C1173.05 272.117 1171.11 297.511 1180.19 307.097C1183.98 311.042 1189.19 313.313 1194.66 313.412C1201.14 313.494 1207.39 310.97 1211.99 306.409C1224.66 293.998 1222.02 273.581 1222.02 257.183L1222.09 208.009Z" fill="#232323"/>
<path d="M715.224 205.78C718.054 205.541 720.894 205.438 723.734 205.471C736.046 205.508 748.568 209.566 757.265 218.501C774.001 235.691 770.601 267.291 770.391 289.574L770.008 346.086C756.575 346.431 743.132 346.377 729.702 345.924C729.192 327.603 730.547 308.695 730.073 290.397C729.302 276.454 732.065 257.777 720.566 247.158C709.613 237.041 695.605 241.157 686.473 250.989C678.056 262.888 680.835 278.722 680.662 292.675C680.441 310.492 681.22 328.384 680.54 346.214C667.149 346.436 653.758 346.516 640.366 346.452C639.411 300.592 639.812 254.177 638.993 208.093C651.954 207.869 665.529 208.043 678.536 208.041C677.974 214.97 677.656 220.508 677.567 227.476C687.854 214.907 699.28 208.743 715.224 205.78Z" fill="#232323"/>
<path d="M1302.1 166.61C1315.71 166.594 1329.32 166.661 1342.93 166.813C1342.75 180.531 1342.72 194.25 1342.83 207.969L1363.88 208.366L1363.67 241.52L1342.83 241.511C1343.13 257.067 1342.55 272.93 1342.64 288.516C1342.74 306.433 1345.24 315.692 1365.24 316.086C1363.59 327.144 1365.99 338.18 1365.07 348.723C1363.48 349.917 1362.31 349.58 1360 349.737L1358.29 349.778C1342.65 350.132 1325.19 349.156 1313.23 337.621C1308.67 333.216 1305.42 327.622 1303.87 321.47C1301.44 312.273 1302.03 297.714 1301.87 287.765L1301.11 241.596C1292.64 241.421 1283.82 241.507 1275.31 241.467C1275.48 230.327 1275.72 219.187 1276.03 208.05L1302.09 207.939C1302.01 194.163 1302.02 180.386 1302.1 166.61Z" fill="#232323"/>
<path d="M440.16 130.9C453.528 130.45 468.444 130.643 481.895 130.582C481.173 145.352 481.284 161.958 481.02 176.929C480.298 214.681 480.062 252.44 480.312 290.198C480.35 299.704 482.258 340.135 481.282 346.237C467.984 346.533 452.897 346.284 439.626 345.912C438.147 276.257 439.913 205.109 439.077 135.323C439.054 133.461 438.855 132.111 440.16 130.9Z" fill="#232323"/>
<path d="M505.809 131.249C520.079 131.076 534.352 131.071 548.623 131.232C547.716 176.022 547.467 220.822 547.874 265.619C548.031 290.662 549.3 321.362 547.98 345.74C545.72 346.996 512.394 345.94 506.494 345.858C507.024 274.322 506.796 202.781 505.809 131.249Z" fill="#232323"/>
<path d="M574.339 208.222C587.877 207.879 601.796 208.149 615.364 208.253L615.376 305.491C615.397 310.565 616.137 344.408 614.505 346.519L572.609 345.674L572.525 249.36C572.554 242.539 572.289 214.633 573.023 209.083L574.339 208.222Z" fill="#232323"/>
<path d="M590.726 140.807C604.004 138.97 616.276 148.193 618.2 161.455C620.124 174.718 610.978 187.045 597.725 189.055C584.35 191.081 571.882 181.836 569.94 168.452C567.999 155.068 577.327 142.662 590.726 140.807Z" fill="#232323"/>
</svg>
