<svg width="678" height="622" viewBox="0 0 678 622" fill="none" xmlns="http://www.w3.org/2000/svg">
<path d="M319.686 84.2253C323.943 83.9445 328.391 84.0842 332.67 84.0061C410.617 82.5847 481.9 112.061 535.789 169.038C564.673 200.109 585.281 237.943 595.716 279.061C598.328 289.021 601.218 300.382 602.688 310.588C604.122 320.534 603.88 331.019 603.92 341.067C603.959 352.021 603.724 363.368 602.195 374.226C601.258 381.677 598.712 389.01 597.146 396.279C578.462 482.925 512.582 554.924 429.656 584.915C405.082 593.803 383.699 597.487 357.178 600.49C356.364 600.612 355.546 600.695 354.725 600.748C315.603 603.078 270.202 596.329 233.835 581.316C130.55 538.687 64.8018 432.477 73.2755 319.898C76.7744 275.466 91.8056 232.715 116.884 195.869C154.479 140.971 210.336 103.883 274.84 89.8689C289.231 86.7424 305.01 85.0207 319.686 84.2253Z" fill="#232323"/>
<path d="M359.645 281.911C363.925 280.805 375.545 281.033 379.604 282.716C381.905 282.459 386.546 285.785 387.026 287.842C387.903 291.588 387.652 302.792 386.672 306.146L386.328 306.432C382.997 305.999 381.312 308.671 378.962 309.113C375.002 309.855 369.861 309.091 365.819 309.797C363.882 310.136 361.757 311.966 360.125 313.001C354.344 317.156 349.816 319.541 348.856 327.369C347.829 335.755 350.898 343.868 355.159 350.969C356.377 352.998 359.307 352.743 361.237 353.405C365.355 355.09 367.458 355.927 371.824 356.325C379.303 357.314 384.411 353.6 390.552 350.128C391.24 349.737 394.786 349.568 395.011 349.128C398.537 342.266 397.64 334.04 398.885 326.709C399.096 325.449 413.338 325.677 414.057 326.328L416.861 326.477C418.797 328.658 416.424 340.478 417.182 342.607C418.129 343.822 419.744 343.719 420.175 344.381C421.986 347.202 421.37 350.826 421.165 354.021C420.708 361.151 415.686 366.97 414.318 374.074C413.971 375.875 412.931 378.295 412.355 380.099C410.73 385.197 404.91 386.428 400.606 388.358C395.703 390.354 388.781 395.078 383.474 394.601C378.677 394.171 376.333 396.703 371.778 397.408C363.038 397.683 353.341 396.66 345.482 392.513C344.419 391.953 334.087 386.319 333.571 386.471C329.239 387.752 303.837 387.547 301.645 385.409C301.315 384.018 301.169 383.8 301.511 382.472C302.542 381.721 315.195 380.42 317.422 379.54C319.268 378.808 319.691 378.652 321.623 377.573C321.624 377.464 321.626 377.355 321.627 377.246L321.625 376.699C321.636 370.612 317.371 363.594 313.129 359.367C312.261 358.503 309.969 356.834 309.458 355.825C308.982 354.881 316.527 333.901 316.251 329.259C316.18 328.07 316.095 326.712 316.594 325.603C316.979 324.749 317.209 323.781 317.716 322.991C318.143 322.325 318.338 322.392 319.08 322.247C319.228 320.078 320.399 314.017 321.633 312.554C323.848 305.756 329.563 299.79 334.819 295.141C335.991 293.585 336.722 291.183 338.209 289.919C341.96 286.733 346.707 284.654 351.491 283.609C353.679 283.131 357.526 281.88 359.645 281.911Z" fill="#DFDFDF"/>
<path d="M321.623 377.573C321.624 377.464 321.626 377.355 321.627 377.245L321.625 376.699C321.636 370.612 317.371 363.594 313.129 359.367C312.261 358.503 309.969 356.834 309.458 355.825C308.982 354.881 316.527 333.901 316.251 329.259C316.18 328.07 316.095 326.712 316.594 325.603C316.979 324.749 317.209 323.781 317.716 322.991C318.143 322.325 318.338 322.392 319.08 322.247C319.228 320.078 320.399 314.017 321.633 312.554L322.271 312.66C317.83 324.559 317.335 344.503 322.592 356.212C325.952 363.696 333.038 373.002 340.096 377.391C356.46 386.673 377.843 388.315 394.409 378.195C397.418 376.355 401.195 372.601 403.837 370.125C405.151 368.377 406.426 367.109 407.714 365.199C414.262 355.484 416.814 343.636 416.805 332.05C416.805 330.181 416.791 328.351 416.861 326.477C418.797 328.658 416.424 340.478 417.182 342.607C418.129 343.822 419.744 343.719 420.175 344.381C421.986 347.201 421.37 350.826 421.165 354.02C420.708 361.151 415.686 366.97 414.318 374.074C413.971 375.875 412.931 378.295 412.355 380.099C410.73 385.197 404.91 386.428 400.606 388.358C395.703 390.354 388.781 395.078 383.474 394.601C378.677 394.171 376.333 396.703 371.778 397.408C363.038 397.683 353.341 396.66 345.482 392.512C344.419 391.953 334.087 386.319 333.571 386.471C329.239 387.752 303.837 387.547 301.645 385.408C301.315 384.018 301.169 383.8 301.511 382.472C302.542 381.721 315.195 380.42 317.422 379.539C319.268 378.808 319.691 378.652 321.623 377.573Z" fill="#5D5D5D"/>
<path d="M340.096 377.391C356.46 386.673 377.843 388.315 394.409 378.195C397.418 376.355 401.195 372.601 403.837 370.125C402.821 373.531 395.322 378.745 392.177 380.41C385.583 383.906 377.177 385.356 369.808 386.388C367.649 386.69 364.633 385.978 362.505 385.673C357.337 384.76 342.595 382.068 340.096 377.391Z" fill="#878787"/>
<path d="M399.295 326.425C398.987 332.507 398.951 337.277 397.742 343.338C394.991 359.817 376.542 370.641 360.671 366.381C335.617 359.655 328.629 320.924 351.428 307.31C360.591 301.84 376.164 302.736 385.752 305.459L386.192 305.692L386.328 306.432C382.997 305.999 381.312 308.671 378.962 309.112C375.002 309.854 369.861 309.091 365.819 309.797C363.882 310.136 361.757 311.966 360.125 313.001C354.344 317.156 349.816 319.541 348.856 327.369C347.829 335.754 350.898 343.868 355.159 350.968C356.377 352.998 359.307 352.743 361.237 353.405C365.355 355.09 367.458 355.927 371.824 356.324C379.303 357.314 384.411 353.6 390.552 350.128C391.24 349.737 394.786 349.568 395.011 349.128C398.537 342.266 397.64 334.04 398.885 326.709C399.096 325.449 413.338 325.677 414.057 326.328C411.16 326.636 403.254 326.264 399.295 326.425Z" fill="#5D5D5D"/>
<path d="M359.644 281.911C363.925 280.805 375.545 281.033 379.604 282.716C381.904 282.459 386.546 285.785 387.026 287.842C387.903 291.588 387.652 302.792 386.672 306.146L386.327 306.432L386.192 305.692L385.751 305.459C386.754 302.54 386.652 292.395 386.685 288.772C369.275 286.517 350.388 284.39 335.259 295.816C330.216 299.623 324.636 306.763 322.271 312.661L321.632 312.554C323.848 305.756 329.562 299.79 334.819 295.141C335.99 293.585 336.722 291.183 338.209 289.919C341.959 286.733 346.707 284.654 351.49 283.609C353.679 283.131 357.526 281.88 359.644 281.911Z" fill="#5D5D5D"/>
<path d="M359.645 281.911C363.925 280.805 375.545 281.033 379.604 282.716C377.422 283.694 368.043 281.656 364.796 282.214C363.962 282.357 360.571 282.062 359.645 281.911Z" fill="#5D5D5D"/>
<path d="M267.521 287.988C271.527 288.068 275.805 288.087 279.782 288.305C284.703 303.19 292.992 318.826 299.164 333.361C301.799 339.565 307.201 349.307 308.454 355.778C309.824 358.883 316.116 372.396 315.939 374.889C313.849 375.66 304.366 375.153 301.493 375.074C301.145 373.353 294.603 359.87 293.314 356.801L291.243 353.282C281.478 353.256 265.301 352.786 255.932 353.425C254.972 354.739 254.302 355.623 253.522 357.079C250.808 363.653 247.753 368.493 245.792 375.729C240.478 375.478 233.083 375.352 227.981 374.667C230.092 370.638 231.671 366.292 233.671 362.207C237.772 353.829 241.177 344.838 245.439 336.559C252.709 320.34 260.9 304.757 267.521 287.988Z" fill="#B2B2B2"/>
<path d="M227.981 374.666C230.092 370.638 231.671 366.291 233.671 362.207C237.772 353.828 241.177 344.838 245.439 336.559C245.271 341.375 239.783 348.969 238.437 354.004C237.082 359.072 236.716 366.407 240.187 370.803C241.487 372.366 243.759 373.425 245.454 374.514C246.107 371.144 250.888 358.833 253.522 357.079C250.808 363.653 247.753 368.493 245.792 375.729C240.478 375.477 233.083 375.352 227.981 374.666Z" fill="#878787"/>
<path d="M308.454 355.778C309.824 358.883 316.116 372.396 315.939 374.889C313.849 375.66 304.366 375.153 301.493 375.074C301.145 373.353 294.603 359.87 293.314 356.801C295.539 357.559 297.19 364.438 298.434 366.692C301.065 371.459 307.749 369.691 311.931 371.029C311.856 366.725 313.26 367.672 310.504 362.862C309.735 361.522 308.239 357.344 308.454 355.778Z" fill="#878787"/>
<path d="M270.356 293.694L273.688 292.481C277.158 293.599 278.267 294.471 280.24 297.85C281.698 300.591 283.606 305.907 283.045 308.904C282.554 311.529 275.512 308.74 273.982 308.224C274.712 309.803 275.401 311.102 275.71 312.828L275.263 313.073C276.275 316.365 278.711 321.951 280.129 325.295C281.694 328.986 283.574 334.05 285.258 337.579C279.937 337.936 266.052 338.33 261.086 337.168C261.983 334.94 266.087 325.785 266.367 324.123C265.689 321.452 271.096 313.25 270.353 311.609C267.434 305.154 265.216 300.892 270.356 293.694Z" fill="#232323"/>
<path d="M270.356 293.694L273.688 292.481C277.158 293.599 278.267 294.471 280.241 297.85C281.698 300.591 283.606 305.907 283.045 308.904C282.554 311.529 275.512 308.74 273.982 308.224C274.712 309.803 275.401 311.102 275.71 312.828L275.263 313.073C274.506 311.029 273.712 308.952 272.987 306.902C271.042 312.739 268.833 318.486 266.367 324.123C265.689 321.452 271.096 313.25 270.354 311.609C267.434 305.154 265.216 300.892 270.356 293.694Z" fill="#DFDFDF"/>
<path d="M119.319 288.076C127.716 285.548 146.883 286.54 154.049 291.658C154.824 292.3 155.863 293.101 156.504 293.83C156.813 296.523 157.815 305.08 156.12 307.408C155.854 307.774 155.049 307.961 154.553 308.137C149.835 307.567 146.33 305.188 141.821 303.711C135.995 301.804 126.4 300.478 121.048 304.256C118.612 305.975 117.003 309.593 116.853 312.516L116.824 312.999C118.683 319.311 124.544 321.413 130.345 322.783C140.972 325.142 152.672 328.933 158.918 338.631C162.451 344.202 163.587 350.961 162.068 357.383C157.068 378.95 132.331 381.323 114.574 376.659C109.5 375.328 102.523 372.511 99.0421 368.479C98.9521 365.265 98.8587 361.425 99.1468 358.227C102.425 357.784 104.703 357.569 108.028 357.648C112.772 361.22 116.189 362.547 122.131 363.256C131.23 364.338 139.474 364.59 144.998 356.115C145.093 349.74 143.6 347.618 138.718 343.781C136.925 343.215 135.057 341.981 133.003 341.421C120.362 337.982 105.594 333.731 101.153 319.73C99.1087 313.283 99.6589 306.957 102.782 300.832C104.989 294.566 113.059 289.338 119.319 288.076Z" fill="#B2B2B2"/>
<path d="M130.345 322.783C140.972 325.142 152.672 328.934 158.918 338.631C162.451 344.202 163.587 350.962 162.068 357.384C157.068 378.95 132.331 381.324 114.574 376.66C109.5 375.329 102.523 372.512 99.0421 368.48C98.9521 365.266 98.8587 361.426 99.1468 358.228C102.425 357.784 104.703 357.569 108.028 357.649C112.772 361.22 116.189 362.548 122.131 363.256C131.23 364.339 139.474 364.59 144.998 356.116C145.093 349.74 143.6 347.619 138.718 343.782C141.778 344.043 142.829 344.444 144.582 347.066C145.048 346.384 144.949 346.645 145.055 345.857C145.514 345.993 145.766 346.049 146.205 346.241C146.426 347.264 148.414 349.462 149.107 350.644C150.134 352.399 151.145 355.845 152.785 356.914C153.896 355.95 155.147 355.123 156.221 354.156C162.288 348.704 156.789 338.32 152.539 333.454C148.03 328.29 140.519 326.243 134.145 324.515C132.573 324.089 131.409 324.093 130.345 322.783Z" fill="#878787"/>
<path d="M119.319 288.076C127.717 285.548 146.884 286.54 154.049 291.658C154.825 292.3 155.863 293.101 156.504 293.83C156.813 296.523 157.816 305.08 156.121 307.408C155.854 307.774 155.049 307.961 154.553 308.137C149.835 307.567 146.331 305.188 141.821 303.711C135.995 301.804 126.4 300.478 121.048 304.256C118.613 305.975 117.004 309.593 116.853 312.516L116.824 312.999L116.891 315.287L116.662 315.47C116.21 313.578 116.458 311.508 116.093 310.39C114.938 312.489 115.44 315.754 115.101 317.824C114.603 320.875 119.08 324.509 118.199 326.638L117.575 326.733C109.816 323.78 106.862 313.462 108.434 306.072C110.446 296.613 117.98 293.053 125.169 288.077L125.112 287.762C122.886 287.638 121.515 288.519 119.319 288.076Z" fill="#DFDFDF"/>
<path d="M154.049 291.658C154.824 292.3 155.863 293.101 156.504 293.83C156.813 296.523 157.815 305.081 156.12 307.408C155.854 307.774 155.049 307.961 154.553 308.137C154.758 303.687 154.579 295.935 154.049 291.658Z" fill="#B2B2B2"/>
<path d="M102.782 300.832C102.71 303.065 101.729 306.047 101.165 308.318C98.9407 317.272 104.988 329.542 113.588 333.159C113.985 332.877 114.111 332.788 114.484 332.464C115.293 333.444 115.525 334.933 116.954 335.228C118.622 335.572 121.32 336.552 122.946 336.38L122.935 336.016C122.026 335.526 121.198 335.072 120.313 334.539C122.494 334.731 124.253 335.771 126.336 336.211C134.392 337.909 145.341 341.256 149.38 349.339C147.791 348.131 147.445 347.707 146.205 346.241C145.766 346.049 145.514 345.993 145.055 345.857C144.949 346.645 145.049 346.383 144.582 347.065C142.829 344.444 141.778 344.043 138.718 343.781C136.926 343.215 135.057 341.981 133.004 341.421C120.362 337.982 105.594 333.731 101.153 319.73C99.1089 313.283 99.6591 306.957 102.782 300.832Z" fill="#B2B2B2"/>
<path d="M533.862 288.171C540.801 286.375 565.382 286.442 569.096 296.148C569.666 297.636 569.547 304.805 569.56 306.827C561.82 307.412 560.89 305.493 554.199 303.191C547.575 300.912 536.746 300.69 532.19 306.922C528.86 311.15 529.939 315.559 533.071 319.533C538.547 322.522 540.957 323.048 547.075 324.411C563.538 328.131 577.704 338.237 573.688 357.129C572.404 363.173 568.491 369.605 563.161 372.952C552.683 379.089 536.554 378.477 524.91 375.964C521.189 375.16 515.436 372.558 513.602 369.208C512.264 366.765 512.781 360.906 512.887 357.927C516.207 357.761 519.789 357.51 523.09 357.563C525.112 360.73 527.284 362.111 531.075 362.75C540.122 364.276 551.815 365.775 557.165 356.619C557.933 340.544 544.006 341.471 533.197 336.933C528.595 335.94 521.679 331.107 518.856 326.999C512.787 318.834 512.695 308.215 517.799 299.575C521.6 293.139 526.781 290.062 533.862 288.171Z" fill="#B2B2B2"/>
<path d="M547.075 324.41C563.538 328.131 577.704 338.237 573.688 357.129C572.404 363.173 568.491 369.605 563.161 372.952C552.683 379.089 536.554 378.476 524.91 375.964C521.189 375.16 515.436 372.558 513.602 369.208C512.264 366.765 512.781 360.906 512.887 357.926C516.207 357.761 519.789 357.509 523.09 357.562C525.112 360.73 527.284 362.11 531.075 362.749C540.122 364.275 551.815 365.775 557.165 356.619C557.933 340.544 544.006 341.471 533.197 336.933C538.05 336.403 550.802 339.445 554.917 342.722C556.45 343.947 558.489 345.672 560.042 346.959C558.797 345.198 556.503 343.636 555.209 342.02C557.718 343.583 563.849 348.522 566.567 347.714C569.408 344.662 566.405 342.103 565.438 338.641C563.429 331.414 558.87 328.139 551.809 326.549C550.402 326.232 548.213 325.418 547.075 324.41Z" fill="#878787"/>
<path d="M533.862 288.171C540.801 286.375 565.382 286.442 569.096 296.148C569.665 297.636 569.546 304.805 569.56 306.827C561.819 307.412 560.889 305.493 554.199 303.191C547.574 300.912 536.745 300.69 532.19 306.922C528.86 311.15 529.939 315.559 533.071 319.533L532.902 319.717C532.144 319.701 531.528 318.799 530.843 318.115C530.912 320.542 531.475 323.281 529.174 324.732C528.558 324.831 528.178 324.855 527.565 324.66C524.765 323.77 521.606 319.26 520.461 316.658C519.723 314.982 519.835 312.602 519.766 310.77C519.196 296.068 532.654 295.447 534.378 289.82C534.537 289.301 534.077 288.65 533.862 288.171Z" fill="#DFDFDF"/>
<path d="M518.855 326.999C519.736 327.266 522.712 328.76 523.59 329.262C527.069 331.252 530.181 333.235 534.157 334.175C540.089 335.903 546.489 337.194 552.13 339.673C553.54 340.292 554.421 341.55 555.209 342.02C556.503 343.636 558.797 345.198 560.042 346.959C558.489 345.672 556.45 343.947 554.917 342.722C550.802 339.445 538.05 336.403 533.197 336.933C528.595 335.939 521.679 331.106 518.855 326.999Z" fill="#B2B2B2"/>
<path d="M482.777 288.403C488.561 288.178 497.562 288.286 503.316 288.831C497.857 295.85 491.289 301.3 485.22 307.577C477.543 315.519 471.432 321.614 463.05 328.867C463.97 330.022 469.227 336.217 469.538 336.949L468.949 337.038C467.158 335.575 465.211 332.566 464.241 332.016C463 334.056 463.278 337.991 460.981 338.362C457.216 338.975 454.869 337.591 451.032 339.296C452.327 340.845 455.002 343.371 455.131 344.989C453.459 343.334 452.277 342.103 450.764 340.312C447.742 341.49 446.275 342.441 444.163 345.062C443.68 348.154 443.69 350.726 443.637 353.834C443.968 359.647 443.236 367.652 443.805 372.928C444.04 373.723 443.951 373.666 443.941 374.537L443.339 375.11C441.319 375.338 428.368 376.03 427.163 375.547C425.664 373.428 427.299 365.715 426.653 363.557C425.26 358.899 423.896 357.261 424.323 351.987C424.657 347.886 426.425 346.509 426.819 342.881C426.852 342.566 426.74 341.692 426.948 341.348C428.123 336.571 426.279 323.474 427.706 319.35C427.673 316.365 427.663 311.989 428.027 309.1C428.077 303.397 428.401 293.899 427.806 288.463C433.083 288.363 438.356 288.331 443.633 288.369C443.554 301.215 443.59 314.063 443.746 326.908C452.347 318.627 460.901 309.726 469.515 301.422C472.687 298.366 479.586 290.292 482.777 288.403Z" fill="#DFDFDF"/>
<path d="M428.027 309.101C429.186 329.202 428.13 348.294 428.216 368.268C431.182 371.283 433.569 371.707 437.525 372.796C439.296 373.286 440.442 374.177 442.359 374.243L442.763 374.041C442.786 371.111 443.067 356.301 443.637 353.835C443.968 359.648 443.236 367.652 443.805 372.929C444.04 373.723 443.951 373.667 443.941 374.537L443.339 375.11C441.319 375.338 428.368 376.03 427.163 375.547C425.664 373.428 427.299 365.715 426.653 363.557C425.26 358.9 423.896 357.261 424.323 351.988C424.657 347.886 426.425 346.509 426.819 342.881C426.852 342.567 426.74 341.693 426.948 341.349C428.123 336.572 426.279 323.475 427.706 319.351C427.673 316.366 427.663 311.99 428.027 309.101Z" fill="#878787"/>
<path d="M427.706 319.351C428.054 337.879 427.203 356.39 427.471 374.964C430.04 374.958 441.743 375.037 443.378 374.514C443.517 373.998 443.68 373.448 443.805 372.928C444.04 373.723 443.951 373.666 443.941 374.537L443.339 375.11C441.319 375.338 428.368 376.03 427.163 375.547C425.664 373.428 427.299 365.715 426.653 363.557C425.26 358.899 423.896 357.261 424.323 351.988C424.657 347.886 426.425 346.509 426.819 342.881C426.852 342.567 426.74 341.693 426.948 341.348C428.123 336.572 426.279 323.475 427.706 319.351Z" fill="#5D5D5D"/>
<path d="M165.267 288.599L213.064 288.284C221.326 288.265 231.03 288.049 239.229 288.451C239.31 293.972 239.362 300.065 239.086 305.586C229.347 305.253 219.601 305.135 209.857 305.232L209.528 325.612C209.775 342.103 209.216 358.794 209.374 375.405L199.583 375.471C196.864 375.448 193.992 375.309 191.262 375.219C191.389 366.914 191.474 358.608 191.515 350.303C191.551 345.212 191.463 338.29 191.958 333.334C191.908 328.501 192.173 323.079 192.288 318.212C192.377 314.442 192.378 309.216 192.771 305.589C183.551 304.869 174.428 305.39 165.227 304.957C165.172 299.505 165.185 294.051 165.267 288.599Z" fill="#DFDFDF"/>
<path d="M192.771 305.589C197.402 307.301 196.631 332.782 201.701 335.566C204.589 335.576 208.689 328.306 208.906 325.902L209.528 325.612C209.775 342.103 209.216 358.794 209.374 375.405L199.583 375.471C196.864 375.448 193.992 375.309 191.262 375.219C191.39 366.914 191.474 358.608 191.515 350.303C191.551 345.212 191.463 338.29 191.958 333.335C191.908 328.502 192.173 323.079 192.288 318.212C192.377 314.442 192.378 309.216 192.771 305.589Z" fill="#B2B2B2"/>
<path d="M191.958 333.334C192.525 336.578 194.071 343.185 194.184 346.016C193.7 345.93 193.906 345.996 193.557 345.85C193.213 355.778 192.287 357.764 195.664 367.701C196.883 371.29 197.401 371.306 199.717 374.398C199.779 374.481 199.628 375.285 199.583 375.47C196.864 375.447 193.992 375.308 191.262 375.219C191.39 366.913 191.474 358.608 191.515 350.302C191.551 345.211 191.463 338.289 191.958 333.334Z" fill="#878787"/>
<path d="M193.998 327.551C194.418 328.182 194.836 330.567 195.104 331.56C195.343 330.919 195.383 330.855 195.75 330.274L195.883 330.552C194.692 332.881 197.286 336.664 196.169 338.988C195.864 337.667 195.712 336.654 195.087 335.449C194.924 335.784 195.055 337.217 195.074 337.704L194.822 337.508C193.894 334.685 193.944 330.502 193.998 327.551Z" fill="#B2B2B2"/>
<path d="M451.032 339.296C454.869 337.591 457.216 338.975 460.98 338.362C463.278 337.992 463 334.056 464.241 332.017C465.211 332.566 467.158 335.575 468.949 337.038L469.538 336.949C475.841 343.189 482.198 351.504 487.842 358.34C491.921 363.279 498.032 369.687 501.081 375.044C494.774 375.12 487.832 375.351 481.585 375.279C478.824 372.776 475.689 368.972 473.206 366.116C469.482 361.859 465.787 357.582 462.123 353.275C460.855 351.776 455.872 346.118 455.131 344.99C455.002 343.371 452.327 340.845 451.032 339.296Z" fill="#B2B2B2"/>
</svg>
