<svg width="473" height="473" viewBox="0 0 473 473" fill="none" xmlns="http://www.w3.org/2000/svg">
<path d="M366.711 265.102C376.421 243.692 412.473 171.494 431.758 164.231C435.867 162.683 439.913 162.82 443.918 164.63C445.927 165.537 449.01 166.973 449.803 169.168C449.978 169.656 450.059 170.391 449.835 170.872C449.276 172.075 446.643 172.895 445.595 173.845C441.218 177.89 437.093 182.2 433.243 186.751C417.871 204.887 403.722 229.266 392.114 250.076C390.394 253.161 385.788 261.501 384.8 264.522L385.121 264.573C389.403 265.245 407.768 265.187 408.337 270.079C408.168 270.548 407.983 271.143 407.466 271.254C404.376 271.915 398.9 271.441 395.86 271.391C390.904 271.319 385.945 271.451 381.001 271.79C372.693 288.867 357.593 322.813 363.252 342.066C364.074 344.858 366.173 347.41 368.843 348.743C373.367 351.001 378.407 349.75 382.901 350.205C377.675 353.623 371.31 354.84 365.189 353.59C346.325 349.794 346.181 327.063 349.572 312.226C352.761 298.272 358.103 285.973 363.353 272.82C348.574 273.823 330.035 277.081 315.513 280.525C312.344 286.329 308.769 292.234 305.461 297.992C300.921 305.953 296.454 313.954 292.061 321.998C288.343 328.813 284.181 335.948 281.601 343.232C285.867 344.883 286.735 345.717 284.8 350.466C283.146 354.008 281.343 357.609 279.56 361.09C277.934 364.263 276.834 368.309 274.869 371.164C272.231 374.993 267.312 373.721 264.122 371.577C262.397 369.746 262.06 369.088 261.125 366.799C260.515 364.251 260.473 362.302 260.637 359.727C254.448 354.041 245.701 355.427 238.274 355.688C236.207 355.759 230.929 355.946 229.143 355.466L229.136 355.057C224.356 354.718 218.857 355.755 214.13 356.408C190.522 359.681 167.535 365.746 144.646 372.233C138.651 373.933 124.014 378.769 118.854 378.661C116.881 378.619 115.06 378.072 113.734 376.552C110.129 372.42 109.964 363.524 110.419 358.39C117.126 353.831 123.083 350.025 129.689 345.087C163.878 319.527 194.451 289.599 224.288 259.191C224.013 258.808 223.742 258.422 223.501 258.016C221.553 254.725 221.351 250.923 222.241 247.272C226.259 230.784 252.133 210.362 265.605 201.011C272.215 196.424 279.098 192.343 285.95 188.146C294.738 183.455 303.461 178.814 312.797 175.284C315.965 174.087 319.164 173.009 322.335 171.819C333.123 168.776 361.857 160.673 366.254 177.298C369.979 191.391 353.81 214.136 347.59 226.226C339.528 240.669 330.305 254.704 322.24 269.035C335.786 267.247 352.96 265.522 366.711 265.102ZM266.986 340.458C272.268 328.716 277.871 317.118 283.788 305.681C287.336 298.745 291.193 291.657 294.586 284.68C280.571 287.315 260.298 294.775 248.182 302.39C243.23 305.845 238.604 308.826 237.246 315.044C236.391 318.97 239.629 321.127 239.156 323.328C234.886 324.485 234.073 316.434 233.047 314.827C225.186 302.507 236.163 292.523 248.84 286.555C264.014 279.412 283.585 275.208 301.371 271.97C309.143 257.485 317.039 243.064 325.058 228.713C330.793 218.224 347.925 188.395 349.195 178.163C349.392 176.584 349.424 175.045 348.352 173.771C347.371 172.606 345.902 172.244 344.435 172.193C338.782 171.998 320.527 179.477 316.173 183.456C313.427 188.804 309.866 193.853 306.48 198.804C295.757 214.48 282.895 228.551 269.843 242.332C251.487 261.586 232.631 280.361 213.297 298.634C200.302 310.716 187.035 322.432 173.777 334.22C172.518 335.34 171.161 336.139 171.974 337.779C174.776 337.227 178.029 336.13 180.866 335.412C185.145 334.324 189.468 333.451 193.784 332.562C214.469 328.296 246.738 326.857 265.122 339.188C265.748 339.606 266.37 340.031 266.986 340.458Z" fill="#6F1E79"/>
<path d="M224.288 259.192C227.395 263.257 232.551 265.677 237.671 265.49C239.181 265.435 243.449 264.575 243.32 262.564C242.309 261.506 240.05 262.086 238.722 261.758C237.937 261.564 237.174 260.903 236.796 260.201C235.77 258.298 236.629 255.289 237.306 253.351C244.256 233.435 296.817 192.69 316.173 183.457C313.427 188.804 309.866 193.853 306.48 198.804C295.757 214.481 282.895 228.552 269.843 242.332C251.487 261.587 232.631 280.361 213.297 298.635C200.302 310.716 187.035 322.432 173.777 334.22C172.518 335.341 171.161 336.14 171.974 337.78C174.776 337.228 178.029 336.13 180.866 335.412C185.145 334.324 189.468 333.451 193.784 332.562C214.469 328.296 246.738 326.858 265.123 339.188C265.748 339.606 266.37 340.031 266.986 340.459C264.469 346.487 261.342 353.277 260.637 359.727C254.448 354.041 245.701 355.427 238.274 355.688C236.207 355.76 230.929 355.947 229.143 355.466L229.136 355.057C224.357 354.718 218.857 355.755 214.13 356.409C190.522 359.681 167.535 365.746 144.646 372.234C138.651 373.934 124.014 378.77 118.854 378.661C116.881 378.62 115.06 378.072 113.734 376.553C110.129 372.421 109.964 363.524 110.419 358.39C117.126 353.831 123.083 350.025 129.689 345.087C163.878 319.527 194.451 289.6 224.288 259.192Z" fill="#CD20BC"/>
<path d="M181.211 184.287C182.738 181.149 184.368 178.038 186.001 174.954C196.654 154.826 232.983 91.4429 253.87 85.1636C258.646 83.728 263.762 84.449 268.125 86.8136C269.363 87.4852 270.857 88.4051 271.217 89.8715C271.303 90.2207 271.326 90.9535 271.157 91.2715C270.615 92.3004 266.608 94.4954 265.395 95.4565C256.09 102.831 248.066 112.402 240.683 121.638C238.066 124.912 235.315 128.217 233.001 131.71C233.426 132.18 234.084 132.861 234.403 133.386C233.657 133.781 230.531 135.572 230.066 135.739C226.154 140.487 219.502 151.152 216.046 156.536C213.913 159.844 211.829 163.184 209.795 166.554C209.16 167.596 207.492 170.168 207.006 171.171C207.516 172.417 208.096 173.749 208.534 175.012C205.666 174.453 206.584 174.91 204.545 175.543C203.357 177.012 200.653 182.342 199.731 184.128C205.201 184.85 222.971 184.567 225.788 188.935C225.843 190.389 223.924 190.731 222.786 190.703C213.809 190.477 205.195 190.213 196.198 190.584C188.387 205.028 179.794 222.874 177.439 239.264C176.654 244.736 176.992 252.976 180.705 257.441C185.584 263.309 192.222 261.443 198.535 262.141L198.882 262.18C192.429 266.203 181.951 266.681 175.378 263.067C150.714 249.507 168.619 209.15 177.726 191.517C159.077 192.746 146.422 195.515 128.642 199.094C121.048 211.37 113.047 225.557 105.835 238.163C102.813 243.355 99.8785 248.6 97.0338 253.893C95.5673 256.642 93.7586 259.852 92.7671 262.76C94.7541 262.605 97.7609 262.284 98.4676 265.002C98.6903 265.859 97.9662 268.61 97.5641 269.529C94.6139 276.271 90.983 282.719 88.0547 289.484C86.9951 291.93 85.9428 293.507 83.2822 294.396C81.0948 295.103 78.7155 294.907 76.6745 293.849C63.8167 287.204 78.0058 259.995 82.2935 250.877C89.8508 235.089 97.8487 219.512 106.277 204.17C90.0162 207.602 55.8272 222.063 45.66 236.338C43.6417 239.172 41.8598 242.992 42.6945 246.618C43.9273 251.969 48.2109 256.203 52.8811 258.824C54.4779 259.72 56.3602 260.025 57.9377 261.053C58.3569 261.767 58.3342 261.418 58.2386 262.101C58.052 262.279 57.7961 262.487 57.5252 262.515C52.5614 262.933 44.0673 260.887 40.0463 258.45C33.0518 254.207 33.3137 249.166 34.7967 242.246C34.9921 241.334 32.7176 237.364 32.3843 235.738C31.5511 231.675 33.1617 227.558 35.4304 224.185C50.3475 204.669 91.1456 195.397 113.557 191.059C117.036 183.857 123.236 173.493 127.357 166.44L150.388 127.196C154.135 120.762 165.939 101.419 166.975 95.0444C167.19 93.721 167.108 92.284 166.277 91.1754C165.408 90.0165 163.977 89.5682 162.587 89.4486C157.924 89.0476 152.587 91.0588 148.247 92.6441C120.954 102.614 81.5699 129.541 59.5818 148.824C53.8814 153.824 41.4573 164.354 41.1582 172.226C40.9374 178.033 46.4658 175.08 48.944 177.629L48.9056 178.127C48.4566 178.61 47.9305 178.86 47.3347 179.122C43.8994 180.629 39.4609 180.109 36.0679 178.703C32.2679 177.128 28.8491 174.224 27.3282 170.328C25.7991 166.411 26.5291 161.922 28.1867 158.168C38.962 133.767 96.0172 104.056 120.286 94.6733C134.6 89.1395 162.776 80.0412 177.466 86.6538C180.58 88.0557 183.285 90.2123 184.471 93.5293C185.947 97.6582 184.868 102.735 183.489 106.745C180.702 114.847 176.09 122.371 171.716 129.696C164.071 142.501 155.884 154.969 147.907 167.567C143.756 174.125 139.132 180.797 135.686 187.75C140.033 187.609 146.496 186.492 151.106 186.13C161.057 185.349 171.235 184.488 181.211 184.287Z" fill="#6F1E79"/>
<path d="M234.403 133.387C256.559 121.645 283.971 113.319 308.905 120.637C335.32 128.391 329.855 151.674 322.335 171.819C319.164 173.009 315.965 174.087 312.797 175.284C303.461 178.814 294.738 183.455 285.95 188.146C286.735 186.421 290.151 181.725 291.472 179.542C298.316 168.1 308.427 154.51 308.589 140.741C308.699 131.541 296.974 129.407 289.752 130.37C264.282 133.845 238.276 148.168 220.208 166.243C213.099 173.355 220.051 178.136 217.382 180.639C216.91 181.073 216.291 181.309 215.65 181.3C212.86 181.267 210.151 176.757 208.738 175.229L208.534 175.013C208.096 173.749 207.516 172.417 207.006 171.172C207.492 170.168 209.16 167.596 209.795 166.555C211.829 163.184 213.913 159.844 216.046 156.536C219.502 151.152 226.154 140.487 230.066 135.739C230.531 135.572 233.657 133.781 234.403 133.387Z" fill="#C41B91"/>
<path d="M261.125 366.799C262.06 369.088 262.397 369.746 264.122 371.577C262.633 373.485 255.353 380.816 252.963 380.615L252.734 380.153C252.963 379.095 257.288 373.864 258.222 372.356C259.688 369.986 260.065 369.577 261.125 366.799Z" fill="#C41B91"/>
</svg>
